<?xml version="1.0" encoding="UTF-8"?>
<svg width="12px" height="12px" viewBox="0 0 12 12" version="1.1" xmlns="http://www.w3.org/2000/svg" xmlns:xlink="http://www.w3.org/1999/xlink">
    <title>形状</title>
    <g id="页面-1" stroke="none" stroke-width="1" fill="none" fill-rule="evenodd">
        <g id="画框" transform="translate(-2445, -273)" fill="#0088FF">
            <g id="编组" transform="translate(2429, 202.5186)">
                <g id="编组-3" transform="translate(0, 55.4814)" fill-rule="nonzero">
                    <g id="reminder" transform="translate(16, 15)">
                        <path d="M10.9979297,9.25125 L9.75902344,9.25125 L9.75902344,4.52039063 C9.75902344,2.44932281 8.08009125,0.770390625 6.00902344,0.770390625 C3.93795563,0.770390625 2.25902344,2.44932281 2.25902344,4.52039063 L2.25902344,9.25125 L1.02035156,9.25125 C0.87796565,9.25125 0.762539063,9.36667659 0.762539063,9.5090625 C0.762539063,9.65144841 0.87796565,9.766875 1.02035156,9.766875 L4.50410156,9.766875 C4.50867188,10.5929297 5.18203125,11.2635938 6.00914063,11.2635938 C6.83669671,11.2626463 7.50859191,10.5944135 7.5140625,9.766875 L10.9979297,9.766875 C11.1403156,9.766875 11.2557422,9.65144841 11.2557422,9.5090625 C11.2557422,9.36667659 11.1403156,9.25125 10.9979297,9.25125 Z M5.01984375,9.766875 L6.9984375,9.766875 C6.99329896,10.3097747 6.55206426,10.7473507 6.00914062,10.7479688 C5.46621699,10.7473507 5.02498229,10.3097747 5.01984375,9.766875 Z M9.24351563,9.25125 L2.77476563,9.25125 L2.77476563,4.52039062 C2.77476563,2.73409464 4.22284464,1.28601562 6.00914063,1.28601562 C7.79543661,1.28601562 9.24351563,2.73409464 9.24351563,4.52039062 L9.24351563,9.25125 Z" id="形状"></path>
                    </g>
                </g>
            </g>
        </g>
    </g>
</svg>