<svg xmlns="http://www.w3.org/2000/svg" viewBox="0 0 1024 1024" aria-hidden="true">
  <path fill="#262626" d="M212.25 419.35a26.7 26.7 0 01-18.92-7.88L88.52 305.97a26.67 26.67 0 1137.84-37.57l85.85 86.4 204.91-207.23a26.65 26.65 0 1137.92 37.5L231.2 411.43a26.7 26.7 0 01-18.93 7.92h-.02zm688.8-286.36V426H613V133h288.05M915 79.65H599.07a39.27 39.27 0 00-39.4 39.15v321.4a39.27 39.27 0 0039.4 39.15h315.9a39.25 39.25 0 0039.4-39.15V118.8A39.25 39.25 0 00915 79.65zm-13.94 533.66v293.02H613V613.31h288.05M915 559.97H599.07a39.27 39.27 0 00-39.4 39.15v321.4a39.28 39.28 0 0039.4 39.15h315.9a39.27 39.27 0 0039.4-39.15V599.11A39.25 39.25 0 00915 559.97zm-499.22 53.34v293.02H127.72V613.31h288.05m13.94-53.34H113.8a39.27 39.27 0 00-39.41 39.15v321.4a39.28 39.28 0 0039.41 39.15h315.9a39.27 39.27 0 0039.4-39.15V599.11a39.27 39.27 0 00-39.4-39.14z"/>
</svg>
