<?xml version="1.0" encoding="UTF-8"?>
<svg width="20px" height="20px" viewBox="0 0 20 20" version="1.1" xmlns="http://www.w3.org/2000/svg" xmlns:xlink="http://www.w3.org/1999/xlink">
    <title>编组</title>
    <g id="页面-1" stroke="none" stroke-width="1" fill="none" fill-rule="evenodd">
        <g id="画框-2" transform="translate(-588, -1718)">
            <g id="编组-6" transform="translate(236, 1318)">
                <g id="编组" transform="translate(170, 208)">
                    <g id="编组-2" transform="translate(170, 0)">
                        <g transform="translate(0, 176)">
                            <g id="编组" transform="translate(12, 16)">
                                <path d="M16.3054596,1.00710147 L16.4969477,1.09946413 C17.5318393,1.62676768 18.3732323,2.46816074 18.9005359,3.50305225 C19.4201538,4.52285984 19.5,5.50013084 19.5,9.6 L19.5,10.4 C19.5,14.4998692 19.4201538,15.4771402 18.9005359,16.4969477 C18.3732323,17.5318393 17.5318393,18.3732323 16.4969477,18.9005359 C15.4771402,19.4201538 14.4998692,19.5 10.4,19.5 L9.6,19.5 C5.50013084,19.5 4.52285984,19.4201538 3.50305225,18.9005359 C2.46816074,18.3732323 1.62676768,17.5318393 1.09946412,16.4969477 C0.579846195,15.4771402 0.5,14.4998692 0.5,10.4 L0.5,9.6 C0.5,5.50013084 0.579846195,4.52285984 1.09946412,3.50305225 C1.62676768,2.46816074 2.46816074,1.62676768 3.50305225,1.09946412 C4.52285984,0.579846195 5.50013084,0.5 9.6,0.5 L10.4,0.5 C14.2436273,0.5 15.3427836,0.57017732 16.3054596,1.00710147 Z" id="矩形-8" stroke-opacity="0.06" stroke="#000000" fill="#FFFFFF"></path>
                                <path d="M11.5270186,8.82209222 C11.5265057,8.84273916 11.5126599,8.95320028 11.3772782,9.4987956 L11.0198499,10.8599449 C10.9054934,11.2625602 10.6572936,11.6290434 10.2803785,11.9490709 C9.87987429,12.2949071 9.47372912,12.4704061 9.07271206,12.4704061 C8.72092471,12.4704061 8.45016126,12.348073 8.24144778,12.0920509 C8.0440161,11.865967 7.94350543,11.5366483 7.94350543,11.1133861 C7.94350543,10.1274948 8.22298663,9.29542326 8.77323128,8.64246387 L8.77579533,8.63936683 C9.28501521,8.00860289 9.86090033,7.70251204 10.5378089,7.70251204 C10.8521612,7.70251204 11.0890792,7.82536132 11.2675369,8.08602891 C11.4418922,8.31675843 11.5270186,8.5583276 11.5270186,8.82209222 M15.9771798,12.8291466 C15.9454732,12.7721512 15.8856695,12.7368231 15.8207729,12.7367515 L14.9633553,12.7367515 C14.9053156,12.7367709 14.8508677,12.7650388 14.8172046,12.812629 C14.3787525,13.434618 13.7864574,13.943565 13.0598063,14.3250172 C12.2167474,14.7487956 11.2213841,14.9640399 10.1008952,14.9640399 C8.63836237,14.9640399 7.4424905,14.5371645 6.54712503,13.6968341 C5.6435546,12.8265657 5.18510287,11.6037509 5.18510287,10.0629732 C5.18510287,8.6243978 5.65996451,7.42222987 6.59840598,6.48795595 C7.52505284,5.54490709 8.70861728,5.06744666 10.1162795,5.06744666 C11.4336872,5.06744666 12.5090488,5.46180317 13.3095445,6.23761184 C14.0602977,6.99380592 14.4408024,7.94253269 14.4408024,9.05849966 C14.4408024,10.0056779 14.1546547,10.8496215 13.5931282,11.5640055 C13.1110873,12.1550241 12.6393025,12.4544047 12.1890557,12.4544047 C11.9090617,12.4544047 11.8854724,12.339298 11.8854724,12.2118032 C11.8854724,11.9810736 11.9403431,11.6992429 12.0511099,11.3637302 L13.17365,7.09704061 C13.1877902,7.04290865 13.1762047,6.98523677 13.1422811,6.94088719 C13.1083575,6.89653762 13.0559274,6.87051965 13.0003204,6.87044047 L12.2208499,6.87044047 C12.1404598,6.87040822 12.0698532,6.92418499 12.0480331,7.00206469 L11.9239331,7.44236063 C11.6100937,6.86476256 11.108566,6.5726084 10.4285805,6.5726084 C9.45270393,6.5726084 8.59374794,7.01135582 7.87837862,7.87336545 C7.12454858,8.73950447 6.74301828,9.82450103 6.74301828,11.0979009 C6.74301828,11.7998968 6.95275738,12.3893668 7.36351783,12.848245 C7.77222704,13.3158981 8.33118945,13.5533379 9.0265592,13.5533379 C9.75577438,13.5533379 10.4075553,13.2555058 10.9680561,12.6675843 C11.1547188,13.3623538 11.6752205,13.5213352 12.1116214,13.5213352 C12.9336552,13.5213352 13.709536,13.077426 14.42029,12.196318 C15.1377106,11.2584308 15.5012926,10.2028562 15.5012926,9.05849966 C15.5012926,7.62508603 15.0330974,6.42653131 14.1090146,5.49690296 C13.1331381,4.50275292 11.8049613,4 10.1639708,4 C8.38708569,4 6.89737395,4.59876118 5.73688594,5.77718513 C4.58460289,6.9163799 4,8.34772884 4,10.0314866 C4,11.8200275 4.5692186,13.2833792 5.69227151,14.3817963 C6.81276038,15.455437 8.29580559,16 10.101408,16 C11.3813806,16 12.5567401,15.7295251 13.5951795,15.196318 C14.6079783,14.6811769 15.4079612,13.9461459 15.9735902,13.0113558 C16.0074715,12.9557528 16.0088446,12.8860579 15.9771798,12.8291466" id="形状" fill="#0088FF" fill-rule="nonzero"></path>
                            </g>
                        </g>
                    </g>
                </g>
            </g>
        </g>
    </g>
</svg>