<?xml version="1.0" encoding="UTF-8"?>
<svg width="14px" height="14px" viewBox="0 0 14 14" version="1.1" xmlns="http://www.w3.org/2000/svg" xmlns:xlink="http://www.w3.org/1999/xlink">
    <title>路径</title>
    <g id="页面-1" stroke="none" stroke-width="1" fill="none" fill-rule="evenodd" fill-opacity="0.85">
        <g id="画框" transform="translate(-6241, -2551)" fill="#000000">
            <g id="编组-3" transform="translate(4840, 2476)">
                <g id="画框-2" transform="translate(950, 50)">
                    <g transform="translate(52, 0)" id="编组">
                        <g transform="translate(390, 16)" id="路径">
                            <path d="M22.9993332,10.1693904 C23.0003862,10.1729544 23.0001634,10.1733392 22.9993332,10.1741694 L17.173324,16.0001612 L22.9993332,21.826153 L21.831106,22.9991557 L16.0003177,17.1731639 L10.1743085,22.9991557 C10.1734985,22.999986 10.1730935,23.0002088 10.1726278,23.000458 L9.00130229,21.830932 L14.8272913,16.0001612 L9.00130229,10.1741694 C9.00047203,10.1733594 9.00024928,10.1729544 9,10.1724887 L10.1695295,9.0011667 C10.1730935,9.0001137 10.1734783,9.00045803 10.1743085,9.0011667 L16.0003177,14.8271383 L21.826327,9.0011667 L22.9993332,10.1693904 Z"></path>
                        </g>
                    </g>
                </g>
            </g>
        </g>
    </g>
</svg>