<?xml version="1.0" encoding="UTF-8"?>
<svg width="16px" height="17px" viewBox="0 0 16 17" version="1.1" xmlns="http://www.w3.org/2000/svg" xmlns:xlink="http://www.w3.org/1999/xlink">
    <title>编组</title>
    <g id="页面-1" stroke="none" stroke-width="1" fill="none" fill-rule="evenodd">
        <g id="画框-2" transform="translate(-3701, -1691)">
            <g id="编组-4" transform="translate(3362, 1318)">
                <g id="编组" transform="translate(339, 113)">
                    <g transform="translate(0, 106)">
                        <g transform="translate(0, 154)">
                            <g transform="translate(0, 0.125)">
                                <rect id="矩形-6" x="0" y="0" width="16" height="16"></rect>
                                <path d="M13,0.875 C13.3978,0.875 13.7794,1.033 14.0607,1.314 C14.342,1.596 14.5,1.977 14.5,2.375 L14.5,9.875 C14.5,10.273 14.342,10.654 14.0607,10.936 C13.7794,11.217 13.3978,11.375 13,11.375 L11,11.375 L11,13.375 C11,13.773 10.842,14.154 10.5607,14.436 C10.2794,14.717 9.8978,14.875 9.5,14.875 L3,14.875 C2.6022,14.875 2.2206,14.717 1.9393,14.436 C1.658,14.154 1.5,13.773 1.5,13.375 L1.5,5.875 C1.5,5.477 1.658,5.096 1.9393,4.814 C2.2206,4.533 2.6022,4.375 3,4.375 L5,4.375 L5,2.375 C5,1.977 5.158,1.596 5.4393,1.314 C5.7206,1.033 6.1022,0.875 6.5,0.875 L13,0.875 Z M3,5.375 C2.8674,5.375 2.7402,5.428 2.6464,5.521 C2.5527,5.615 2.5,5.742 2.5,5.875 L2.5,13.375 C2.5,13.508 2.5527,13.635 2.6464,13.729 C2.7402,13.822 2.8674,13.875 3,13.875 L9.5,13.875 C9.6326,13.875 9.7598,13.822 9.8536,13.729 C9.9473,13.635 10,13.508 10,13.375 L10,5.875 C10,5.742 9.9473,5.615 9.8536,5.521 C9.7598,5.428 9.6326,5.375 9.5,5.375 L3,5.375 Z M6.5,1.875 C6.3674,1.875 6.2402,1.928 6.1464,2.021 C6.0527,2.115 6,2.242 6,2.375 L6,4.375 L9.5,4.375 C9.8978,4.375 10.2794,4.533 10.5607,4.814 C10.842,5.096 11,5.477 11,5.875 L11,10.375 L13,10.375 C13.1326,10.375 13.2598,10.322 13.3536,10.229 C13.4473,10.135 13.5,10.008 13.5,9.875 L13.5,2.375 C13.5,2.242 13.4473,2.115 13.3536,2.021 C13.2598,1.928 13.1326,1.875 13,1.875 L6.5,1.875 Z" id="形状备份-2" fill-opacity="0.4" fill="#000000" fill-rule="nonzero"></path>
                            </g>
                        </g>
                    </g>
                </g>
            </g>
        </g>
    </g>
</svg>