<?xml version="1.0" encoding="UTF-8"?>
<svg width="22px" height="22px" viewBox="0 0 22 22" version="1.1" xmlns="http://www.w3.org/2000/svg" xmlns:xlink="http://www.w3.org/1999/xlink">
    <title>编组</title>
    <g id="页面-1" stroke="none" stroke-width="1" fill="none" fill-rule="evenodd">
        <g id="编组">
            <rect id="矩形" x="0" y="0" width="22" height="22"></rect>
            <path d="M7.25269931,17.9448957 C6.45837151,17.9448957 5.81219564,17.2986436 5.81219564,16.5043892 L5.81219564,6.56277595 C5.81250912,6.29888206 6.02635922,6.08503196 6.29025311,6.08471848 C6.5541751,6.08497138 6.76806589,6.29885396 6.76832892,6.56277595 L6.76832892,16.279638 C6.76832892,16.7587415 6.99816354,16.9887413 7.47724869,16.9887413 L14.5220907,16.9887413 C15.0011024,16.9887413 15.2310104,16.7587415 15.2310104,16.279638 L15.2310104,6.56277595 C15.2313746,6.29882428 15.445318,6.0849712 15.7092698,6.08471848 C15.9731857,6.08502175 16.1870733,6.29886006 16.1874373,6.56277595 L16.1874373,16.5124823 C16.1874373,16.8943226 16.0383311,17.2541045 15.7675359,17.5246978 C15.4997537,17.7943397 15.1352279,17.9456466 14.7552102,17.9448957 L7.25269931,17.9448957 L7.25269931,17.9448957 Z M8.68841323,14.9290568 C8.45240781,14.9289051 8.26110846,14.737655 8.2608959,14.5016496 L8.2608959,9.28111529 C8.2608959,9.04548159 8.45266943,8.85370806 8.68830313,8.85370806 C8.92393682,8.85370806 9.11573012,9.04548159 9.11573012,9.28111529 L9.11573012,14.501723 C9.11602129,14.6151391 9.07095802,14.7239649 8.99057124,14.8039728 C8.91057644,14.8843119 8.80178631,14.9293411 8.68841323,14.9290568 L8.68841323,14.9290568 Z M11.0001009,14.9290568 C10.7641594,14.9287939 10.5729567,14.7375911 10.5726937,14.5016496 L10.5726937,9.28111529 C10.5728961,9.04509502 10.7641724,8.85381044 11.0001927,8.85359795 C11.2361592,8.85391146 11.4273554,9.04514876 11.4276183,9.28111529 L11.4276183,14.501723 C11.4272038,14.7376327 11.2360108,14.9287437 11.0001009,14.9290568 Z M13.3117886,14.9290568 C13.0757709,14.9287334 12.8845214,14.7374838 12.8841979,14.5014661 L12.8841979,9.28102353 C12.8845216,9.04503561 13.0758006,8.85383869 13.3117886,8.8536163 C13.5477582,8.85381866 13.7390017,9.04505395 13.7392142,9.28102353 L13.7392142,14.5016129 C13.7389614,14.7375616 13.5477556,14.9287755 13.311807,14.9290568 L13.3117886,14.9290568 Z M4.47805746,6.88064287 C4.21416357,6.88032939 4.00031348,6.6664793 4,6.40258541 C4.00031348,6.13869152 4.21416357,5.92484142 4.47805746,5.92452794 L7.59781826,5.92452794 L7.59781826,5.08516547 C7.59781826,4.51333167 8.06321317,4.04804687 8.63513873,4.04804687 L13.3912875,4.04804687 C13.963213,4.04804687 14.4284061,4.51333167 14.4284061,5.08516547 L14.4284061,5.92450959 L17.5219425,5.92450959 C17.7858574,5.92477261 17.999737,6.13865223 18,6.40256705 C17.9996966,6.66646811 17.7858436,6.88032937 17.5219425,6.88064287 L4.47805746,6.88064287 Z M8.5540433,5.92460135 L13.4723646,5.92460135 L13.4723646,5.00436367 L8.5540433,5.00436367 L8.5540433,5.92460135 Z" id="形状结合" fill="#BA2623" fill-rule="nonzero"></path>
        </g>
    </g>
</svg>