<?xml version="1.0" encoding="UTF-8"?>
<svg width="16px" height="16px" viewBox="0 0 16 16" version="1.1" xmlns="http://www.w3.org/2000/svg" xmlns:xlink="http://www.w3.org/1999/xlink">
    <title>Clipped备份 2</title>
    <defs>
        <polygon id="path-1" points="16 0 0 0 0 16 16 16"></polygon>
    </defs>
    <g id="页面-1" stroke="none" stroke-width="1" fill="none" fill-rule="evenodd">
        <g id="画框-2" transform="translate(-3757, -1691)">
            <g id="编组-4" transform="translate(3362, 1318)">
                <g id="编组" transform="translate(339, 113)">
                    <g transform="translate(0, 106)">
                        <g transform="translate(0, 154)" id="Clipped备份-2">
                            <g transform="translate(56, 0)">
                                <mask id="mask-2" fill="white">
                                    <use xlink:href="#path-1"></use>
                                </mask>
                                <g id="路径"></g>
                                <path d="M2.5,2 L11.27,2 C11.938,2 12.527,2.216 13.036,2.647 C13.545,3.078 13.855,3.622 13.966,4.281 L14.798,9.251 C14.875,9.709 14.763,10.115 14.463,10.469 C14.163,10.823 13.781,11 13.318,10.999 L10.796,10.999 C10.806,11.098 10.846,11.349 10.916,11.754 C11.092,12.759 11.18,13.443 11.18,13.805 C11.18,14.435 10.789,14.949 10.008,15.348 C9.235,15.743 8.539,15.769 7.921,15.428 C7.588,15.245 7.239,14.642 6.875,13.62 C6.353,12.153 5.799,11.28 5.212,11 L2.5,11 C2.086,11 1.733,10.853 1.44,10.56 C1.147,10.268 1,9.915 1,9.5 L1,3.5 C1,3.086 1.147,2.733 1.44,2.44 C1.732,2.147 2.085,2 2.5,2 Z M4,3 L2.5,3 C2.167,3 2,3.167 2,3.5 L2,9.5 C2,9.833 2.167,10 2.5,10 L4,10 L4,3 Z M5,10 L5,3 L11.27,3 C11.693,3 12.067,3.137 12.39,3.41 C12.713,3.683 12.909,4.029 12.979,4.446 L13.812,9.417 C13.837,9.57 13.8,9.705 13.7,9.823 C13.6,9.941 13.473,10 13.318,10 L10.458,9.999 C10.33,9.999 10.207,10.048 10.114,10.136 C9.901,10.339 9.794,10.614 9.794,10.963 C9.794,11.079 9.84,11.4 9.931,11.926 C10.098,12.875 10.181,13.501 10.181,13.806 C10.181,14.027 9.972,14.244 9.553,14.457 C9.096,14.69 8.712,14.722 8.403,14.553 C8.292,14.492 8.096,14.069 7.817,13.285 C7.524,12.461 7.264,11.854 7.038,11.465 C6.619,10.745 6.105,10.268 5.494,10.033 C5.437,10.011 5.376,9.999 5.314,9.999 L5,10 Z" id="形状" fill-opacity="0.4" fill="#000000" mask="url(#mask-2)"></path>
                            </g>
                        </g>
                    </g>
                </g>
            </g>
        </g>
    </g>
</svg>