<svg width="16" height="16" viewBox="0 0 16 16" fill="none" xmlns="http://www.w3.org/2000/svg">
  <path fill-rule="evenodd" clip-rule="evenodd" d="M2.5 2H11.27C11.938 2 12.527 2.216 13.036 2.647C13.545 3.078 13.855 3.622 13.966 4.281L14.798 9.251C14.875 9.709 14.763 10.115 14.463 10.469C14.163 10.823 13.781 11 13.318 10.999H10.796C10.806 11.098 10.846 11.349 10.916 11.754C11.092 12.759 11.18 13.443 11.18 13.805C11.18 14.435 10.789 14.949 10.008 15.348C9.235 15.743 8.539 15.769 7.921 15.428C7.588 15.245 7.239 14.642 6.875 13.62C6.353 12.153 5.799 11.28 5.212 11H2.5C2.086 11 1.733 10.853 1.44 10.56C1.147 10.268 1 9.915 1 9.5V3.5C1 3.086 1.147 2.733 1.44 2.44C1.732 2.147 2.085 2 2.5 2Z" fill="#000" fill-opacity=".85"/>
</svg>
