<svg width="22" height="22" viewBox="5 5 22 22" fill="none" xmlns="http://www.w3.org/2000/svg">
  <path d="M22.4 21.792H10.224C9.84 21.792 9.536 22.096 9.536 22.48C9.536 22.864 9.84 23.168 10.224 23.168H22.4C22.784 23.168 23.088 22.864 23.088 22.48C23.088 22.112 22.784 21.792 22.4 21.792ZM15.856 20.608C15.984 20.736 16.16 20.8 16.32 20.784C16.48 20.784 16.656 20.736 16.784 20.608L20.944 16.448C21.184 16.208 21.184 15.808 20.944 15.568C20.704 15.328 20.304 15.328 20.064 15.568L16.912 18.72V9.392C16.912 9.056 16.64 8.768 16.288 8.768C15.936 8.768 15.664 9.04 15.664 9.392V18.656L12.576 15.568C12.336 15.328 11.936 15.328 11.696 15.568C11.456 15.808 11.456 16.208 11.696 16.448L15.856 20.608Z" fill="#000" fill-opacity=".85"/>
</svg>
