<?xml version="1.0" encoding="UTF-8"?>
<svg width="32px" height="32px" viewBox="0 0 32 32" version="1.1" xmlns="http://www.w3.org/2000/svg" xmlns:xlink="http://www.w3.org/1999/xlink">
    <title>编组</title>
    <g id="页面-1" stroke="none" stroke-width="1" fill="none" fill-rule="evenodd">
        <g id="画框-2" transform="translate(-3988, -1631)">
            <g id="编组-4" transform="translate(3362, 1318)">
                <g id="编组" transform="translate(339, 113)">
                    <g transform="translate(0, 106)">
                        <g transform="translate(0, 73)">
                            <g transform="translate(287, 21)">
                                <path d="M27.4049287,1.31745107 C28.8161444,2.03650138 29.9634986,3.18385556 30.6825489,4.59507125 C31.3929054,5.98922439 31.5,7.29999957 31.5,12.8 L31.5,19.2 C31.5,24.7000004 31.3929054,26.0107756 30.6825489,27.4049287 C29.9634986,28.8161444 28.8161444,29.9634986 27.4049287,30.6825489 C26.0107756,31.3929054 24.7000004,31.5 19.2,31.5 L12.8,31.5 C7.29999957,31.5 5.98922439,31.3929054 4.59507125,30.6825489 C3.18385556,29.9634986 2.03650138,28.8161444 1.31745107,27.4049287 C0.607094564,26.0107756 0.5,24.7000004 0.5,19.2 L0.5,12.8 C0.5,7.29999957 0.607094564,5.98922439 1.31745107,4.59507125 C2.03650138,3.18385556 3.18385556,2.03650138 4.59507125,1.31745107 C5.98922439,0.607094564 7.29999957,0.5 12.8,0.5 L19.2,0.5 C24.7000004,0.5 26.0107756,0.607094564 27.4049287,1.31745107 Z" id="矩形-13" stroke="#EEEEEE" fill="#FFFFFF"></path>
                                <path d="M22.4,21.792 L10.224,21.792 C9.84,21.792 9.536,22.096 9.536,22.48 C9.536,22.864 9.84,23.168 10.224,23.168 L22.4,23.168 C22.784,23.168 23.088,22.864 23.088,22.48 C23.088,22.112 22.784,21.792 22.4,21.792 Z M15.856,20.608 C15.984,20.736 16.16,20.8 16.32,20.784 C16.48,20.784 16.656,20.736 16.784,20.608 L20.944,16.448 C21.184,16.208 21.184,15.808 20.944,15.568 C20.704,15.328 20.304,15.328 20.064,15.568 L16.912,18.72 L16.912,9.392 C16.912,9.056 16.64,8.768 16.288,8.768 C15.936,8.768 15.664,9.04 15.664,9.392 L15.664,18.656 L12.576,15.568 C12.336,15.328 11.936,15.328 11.696,15.568 C11.456,15.808 11.456,16.208 11.696,16.448 L15.856,20.608 Z" id="形状" fill-opacity="0.85" fill="#000000" fill-rule="nonzero"></path>
                            </g>
                        </g>
                    </g>
                </g>
            </g>
        </g>
    </g>
</svg>