<?xml version="1.0" encoding="UTF-8"?>
<svg width="18px" height="18px" viewBox="0 0 18 18" version="1.1" xmlns="http://www.w3.org/2000/svg" xmlns:xlink="http://www.w3.org/1999/xlink">
    <title>Clipped备份 2 2</title>
    <defs>
        <path d="M15.75,0 L2.25,0 C1.00735714,0 0,1.00735714 0,2.25 L0,15.75 C0,16.9926429 1.00735714,18 2.25,18 L15.75,18 C16.9926429,18 18,16.9926429 18,15.75 L18,2.25 C18,1.00735714 16.9926429,0 15.75,0 Z" id="path-1"></path>
        <path d="M0,15.75 L0,2.25 C0,1.00735714 1.00735714,0 2.25,0 L15.75,0 C16.9926429,0 18,1.00735714 18,2.25 L18,15.75 C18,16.9926429 16.9926429,18 15.75,18 L2.25,18 C1.00735714,18 0,16.9926429 0,15.75 Z" id="path-3"></path>
    </defs>
    <g id="页面-1" stroke="none" stroke-width="1" fill="none" fill-rule="evenodd">
        <g id="Clipped备份-2">
            <mask id="mask-2" fill="white">
                <use xlink:href="#path-1"></use>
            </mask>
            <g id="路径"></g>
            <g id="Clipped" mask="url(#mask-2)">
                <mask id="mask-4" fill="white">
                    <use xlink:href="#path-3"></use>
                </mask>
                <g id="路径"></g>
                <g id="编组" mask="url(#mask-4)">
                    <path d="M0,15.75 L0,2.25 C0,1.00735714 1.00735714,0 2.25,0 L15.75,0 C16.9926429,0 18,1.00735714 18,2.25 L18,15.75 C18,16.9926429 16.9926429,18 15.75,18 L2.25,18 C1.00735714,18 0,16.9926429 0,15.75 Z" id="路径" fill="#0BBE9F"></path>
                    <polygon id="路径" fill-opacity="0.35" fill="#FFFFFF" points="22.5 14.625 11.25 14.625 11.25 18 22.5 18"></polygon>
                    <polygon id="路径" fill-opacity="0.25" fill="#FFFFFF" points="22.5 11.25 11.25 11.25 11.25 14.625 22.5 14.625"></polygon>
                    <polygon id="路径" fill-opacity="0.15" fill="#FFFFFF" points="22.5 7.875 11.25 7.875 11.25 11.25 22.5 11.25"></polygon>
                    <path d="M7.49999658,6.64285254 L8.24999829,6.64285254 L8.24999829,5.8571582 L7.49999658,5.8571582 L7.49999658,6.64286328 L7.49999658,6.64285254 Z M6.74999487,7.42856836 L7.49999658,7.42856836 L7.49999658,6.64285254 L6.74999487,6.64285254 L6.74999487,7.42856836 Z M12.7500017,13.3214316 C12.7500017,13.5571475 12.6000041,13.7142842 12.3750026,13.7142842 L5.62499744,13.7142842 C5.3999959,13.7142842 5.25000171,13.5571475 5.25000171,13.3214316 L5.25000171,4.67856836 C5.25000171,4.44285254 5.3999959,4.28571582 5.62499744,4.28571582 L9.75000171,4.28571582 L9.75000171,6.25 C9.75000171,6.87856836 10.2750019,7.42856836 10.8749991,7.42856836 L12.7500017,7.42856836 L12.7500017,13.3214316 Z M10.5000034,4.83571582 L12.2249981,6.6428418 L10.8749991,6.6428418 C10.6499976,6.6428418 10.5000034,6.48570508 10.5000034,6.24998926 L10.5000034,4.83571582 Z M13.3500058,6.72143164 L10.349999,3.57856836 C10.349999,3.57856836 10.200015,3.5 10.1249974,3.5 L5.62499744,3.5 C5.02500017,3.5 4.5,4.05 4.5,4.67856836 L4.5,13.3214316 C4.5,13.95 5.02500017,14.5 5.62499744,14.5 L12.3750026,14.5 C12.9749998,14.5 13.5,13.95 13.5,13.3214316 L13.5,7.03571582 C13.5,6.95714746 13.4250029,6.8 13.3500058,6.72143164 Z M6.74998462,5.85714746 L7.49998633,5.85714746 L7.49998633,5.07143164 L6.74998462,5.07143164 L6.74998462,5.85714746 L6.74998462,5.85714746 Z M6.74998462,9 L7.49998633,9 L7.49998633,8.21428418 L6.74998462,8.21428418 L6.74998462,9 L6.74998462,9 Z M7.49998633,9.78571582 L8.24998804,9.78571582 L8.24998804,9 L7.49998633,9 L7.49998633,9.78571582 Z M7.49998633,8.21428418 L8.24998804,8.21428418 L8.24998804,7.42856836 L7.49998633,7.42856836 L7.49998633,8.21428418 L7.49998633,8.21428418 Z M6.74998462,10.5714316 L7.49998633,10.5714316 L7.49998633,9.78571582 L6.74998462,9.78571582 L6.74998462,10.5714316 Z M6.74998462,11.3571475 L6.74998462,12.9285684 L8.24998462,12.9285684 L8.24998462,10.5714316 L7.49998633,10.5714316 L7.49998633,11.3571475 L6.74998462,11.3571475 L6.74998462,11.3571475 Z" id="形状" fill="#FFFFFF" fill-rule="nonzero"></path>
                </g>
            </g>
        </g>
    </g>
</svg>