<?xml version="1.0" encoding="UTF-8"?>
<svg width="18px" height="18px" viewBox="0 0 18 18" version="1.1" xmlns="http://www.w3.org/2000/svg" xmlns:xlink="http://www.w3.org/1999/xlink">
    <title>Clipped备份 2 4</title>
    <defs>
        <path d="M15.75,0 L2.25,0 C1.00735714,0 0,1.00735714 0,2.25 L0,15.75 C0,16.9926429 1.00735714,18 2.25,18 L15.75,18 C16.9926429,18 18,16.9926429 18,15.75 L18,2.25 C18,1.00735714 16.9926429,0 15.75,0 Z" id="path-1"></path>
        <path d="M0,15.75 L0,2.25 C0,1.00735714 1.00735714,0 2.25,0 L15.75,0 C16.9926429,0 18,1.00735714 18,2.25 L18,15.75 C18,16.9926429 16.9926429,18 15.75,18 L2.25,18 C1.00735714,18 0,16.9926429 0,15.75 Z" id="path-3"></path>
    </defs>
    <g id="页面-1" stroke="none" stroke-width="1" fill="none" fill-rule="evenodd">
        <g id="Clipped备份-2">
            <mask id="mask-2" fill="white">
                <use xlink:href="#path-1"></use>
            </mask>
            <g id="路径"></g>
            <g id="Clipped" mask="url(#mask-2)">
                <mask id="mask-4" fill="white">
                    <use xlink:href="#path-3"></use>
                </mask>
                <g id="路径"></g>
                <g id="编组" mask="url(#mask-4)">
                    <path d="M0,15.75 L0,2.25 C0,1.00735714 1.00735714,0 2.25,0 L15.75,0 C16.9926429,0 18,1.00735714 18,2.25 L18,15.75 C18,16.9926429 16.9926429,18 15.75,18 L2.25,18 C1.00735714,18 0,16.9926429 0,15.75 Z" id="路径" fill="#7C7C7C"></path>
                    <polygon id="路径" fill-opacity="0.35" fill="#FFFFFF" points="22.5 14.625 11.25 14.625 11.25 18 22.5 18"></polygon>
                    <polygon id="路径" fill-opacity="0.25" fill="#FFFFFF" points="22.5 11.25 11.25 11.25 11.25 14.625 22.5 14.625"></polygon>
                    <polygon id="路径" fill-opacity="0.15" fill="#FFFFFF" points="22.5 7.875 11.25 7.875 11.25 11.25 22.5 11.25"></polygon>
                    <g transform="translate(4, 3.5)" fill="#FFFFFF" fill-rule="nonzero" id="形状">
                        <path d="M2.04301075,0 L7.95698925,0 C8.49882939,0 9.01847717,0.203884996 9.40161601,0.566802617 C9.78475484,0.929720238 10,1.42194216 10,1.93518518 L10,9.06481482 C10,9.57805784 9.78475484,10.0702798 9.40161601,10.4331974 C9.01847717,10.796115 8.49882939,11 7.95698925,11 L2.04301075,11 C1.50117061,11 0.981522832,10.796115 0.598383995,10.4331974 C0.215245157,10.0702798 0,9.57805784 0,9.06481482 L0,1.93518518 C0,1.42194216 0.215245157,0.929720238 0.598383995,0.566802617 C0.981522832,0.203884996 1.50117061,0 2.04301075,0 L2.04301075,0 Z M2.04301075,0.814814812 C1.38977072,0.814814812 0.860215051,1.31642171 0.860215051,1.93518518 L0.860215051,9.06481482 C0.860215051,9.36195551 0.984830669,9.6469261 1.20664789,9.8570363 C1.42846511,10.0671465 1.72931383,10.1851852 2.04301075,10.1851852 L7.95698925,10.1851852 C8.61022928,10.1851852 9.13978495,9.68357829 9.13978495,9.06481482 L9.13978495,1.93518518 C9.13978495,1.63804449 9.01516933,1.3530739 8.79335211,1.1429637 C8.57153489,0.932853494 8.27068617,0.814814812 7.95698925,0.814814812 L2.04301075,0.814814812 L2.04301075,0.814814812 Z"></path>
                        <path d="M2.58064517,4.125 L5.2688172,4.125 C5.50635903,4.125 5.69892473,3.94259749 5.69892473,3.71759259 C5.69892473,3.49258769 5.50635903,3.31018518 5.2688172,3.31018518 L2.58064517,3.31018518 C2.34310333,3.31018518 2.15053763,3.49258769 2.15053763,3.71759259 C2.15053763,3.94259749 2.34310333,4.125 2.58064517,4.125 Z M2.58064517,6.16203704 L7.41935483,6.16203704 C7.57303435,6.16206104 7.71505092,6.08441488 7.79189799,5.95835273 C7.86874506,5.83229058 7.86874506,5.67696868 7.79189799,5.55090653 C7.71505092,5.42484438 7.57303435,5.34719822 7.41935483,5.34722222 L2.58064517,5.34722222 C2.42696565,5.34719822 2.28494908,5.42484438 2.20810201,5.55090653 C2.13125494,5.67696868 2.13125494,5.83229058 2.20810201,5.95835273 C2.28494908,6.08441488 2.42696565,6.16206104 2.58064517,6.16203704 L2.58064517,6.16203704 Z M2.58064517,8.19907408 L7.41935483,8.19907408 C7.57303425,8.19909794 7.71505067,8.12145175 7.79189766,7.99538966 C7.86874464,7.86932756 7.86874464,7.71400577 7.79189766,7.58794368 C7.71505067,7.46188158 7.57303425,7.38423539 7.41935483,7.38425926 L2.58064517,7.38425926 C2.42696575,7.38423539 2.28494933,7.46188158 2.20810234,7.58794368 C2.13125536,7.71400577 2.13125536,7.86932756 2.20810234,7.99538966 C2.28494933,8.12145175 2.42696575,8.19909794 2.58064517,8.19907408 Z"></path>
                    </g>
                </g>
            </g>
        </g>
    </g>
</svg>