<?xml version="1.0" encoding="UTF-8"?>
<svg width="18px" height="18px" viewBox="0 0 18 18" version="1.1" xmlns="http://www.w3.org/2000/svg" xmlns:xlink="http://www.w3.org/1999/xlink">
    <title>Clipped</title>
    <defs>
        <path d="M15.75,0 L2.25,0 C1.00735714,0 0,1.00735714 0,2.25 L0,15.75 C0,16.9926429 1.00735714,18 2.25,18 L15.75,18 C16.9926429,18 18,16.9926429 18,15.75 L18,2.25 C18,1.00735714 16.9926429,0 15.75,0 Z" id="path-1"></path>
        <path d="M0,15.75 L0,2.25 C0,1.00735714 1.00735714,0 2.25,0 L15.75,0 C16.9926429,0 18,1.00735714 18,2.25 L18,15.75 C18,16.9926429 16.9926429,18 15.75,18 L2.25,18 C1.00735714,18 0,16.9926429 0,15.75 Z" id="path-3"></path>
    </defs>
    <g id="页面-1" stroke="none" stroke-width="1" fill="none" fill-rule="evenodd">
        <g id="Clipped">
            <mask id="mask-2" fill="white">
                <use xlink:href="#path-1"></use>
            </mask>
            <g id="路径"></g>
            <g mask="url(#mask-2)">
                <mask id="mask-4" fill="white">
                    <use xlink:href="#path-3"></use>
                </mask>
                <g id="路径"></g>
                <g id="编组" mask="url(#mask-4)">
                    <path d="M0,15.75 L0,2.25 C0,1.00735714 1.00735714,0 2.25,0 L15.75,0 C16.9926429,0 18,1.00735714 18,2.25 L18,15.75 C18,16.9926429 16.9926429,18 15.75,18 L2.25,18 C1.00735714,18 0,16.9926429 0,15.75 Z" id="路径" fill="#22A860"></path>
                    <polygon id="路径" fill-opacity="0.35" fill="#FFFFFF" points="22.5 14.625 11.25 14.625 11.25 18 22.5 18"></polygon>
                    <polygon id="路径" fill-opacity="0.25" fill="#FFFFFF" points="22.5 11.25 11.25 11.25 11.25 14.625 22.5 14.625"></polygon>
                    <polygon id="路径" fill-opacity="0.15" fill="#FFFFFF" points="22.5 7.875 11.25 7.875 11.25 11.25 22.5 11.25"></polygon>
                    <path d="M11.9429357,5.7465 L11.9429357,4.437 C11.9429357,4.3425 11.8754357,4.275 11.7809357,4.275 L6.35387143,4.275 C6.25937143,4.275 6.19187143,4.3425 6.19187143,4.437 L6.19187143,13.563 C6.19187143,13.6575 6.25937143,13.725 6.35387143,13.725 L11.7809357,13.725 C11.8754357,13.725 11.9429357,13.6575 11.9429357,13.563 L11.9429357,12.2535 C11.9429357,12.159 11.8754357,12.0915 11.7809357,12.0915 L8.16287143,12.0915 C8.12237143,12.0915 8.09537143,12.0645 8.09537143,12.024 L8.09537143,9.8505 C8.09537143,9.81 8.12237143,9.783 8.16287143,9.783 L10.4174357,9.783 C10.5119357,9.783 10.5794357,9.7155 10.5794357,9.621 L10.5794357,8.3115 C10.5794357,8.217 10.5119357,8.1495 10.4174357,8.1495 L8.16287143,8.1495 C8.12237143,8.1495 8.09537143,8.1225 8.09537143,8.082 L8.09537143,5.976 C8.09537143,5.9355 8.12237143,5.9085 8.16287143,5.9085 L11.7809357,5.9085 C11.8754357,5.9085 11.9429357,5.841 11.9429357,5.7465 Z" id="路径" fill="#FFFFFF"></path>
                </g>
            </g>
        </g>
    </g>
</svg>