<?xml version="1.0" encoding="UTF-8"?>
<svg width="18px" height="18px" viewBox="0 0 18 18" version="1.1" xmlns="http://www.w3.org/2000/svg" xmlns:xlink="http://www.w3.org/1999/xlink">
    <title>Clipped备份 2 3</title>
    <defs>
        <path d="M15.75,0 L2.25,0 C1.00735714,0 0,1.00735714 0,2.25 L0,15.75 C0,16.9926429 1.00735714,18 2.25,18 L15.75,18 C16.9926429,18 18,16.9926429 18,15.75 L18,2.25 C18,1.00735714 16.9926429,0 15.75,0 Z" id="path-1"></path>
        <path d="M0,15.75 L0,2.25 C0,1.00735714 1.00735714,0 2.25,0 L15.75,0 C16.9926429,0 18,1.00735714 18,2.25 L18,15.75 C18,16.9926429 16.9926429,18 15.75,18 L2.25,18 C1.00735714,18 0,16.9926429 0,15.75 Z" id="path-3"></path>
    </defs>
    <g id="页面-1" stroke="none" stroke-width="1" fill="none" fill-rule="evenodd">
        <g id="Clipped备份-2">
            <mask id="mask-2" fill="white">
                <use xlink:href="#path-1"></use>
            </mask>
            <g id="路径"></g>
            <g id="Clipped" mask="url(#mask-2)">
                <mask id="mask-4" fill="white">
                    <use xlink:href="#path-3"></use>
                </mask>
                <g id="路径"></g>
                <g id="编组" mask="url(#mask-4)">
                    <path d="M0,15.75 L0,2.25 C0,1.00735714 1.00735714,0 2.25,0 L15.75,0 C16.9926429,0 18,1.00735714 18,2.25 L18,15.75 C18,16.9926429 16.9926429,18 15.75,18 L2.25,18 C1.00735714,18 0,16.9926429 0,15.75 Z" id="路径" fill="#D03703"></path>
                    <polygon id="路径" fill-opacity="0.35" fill="#FFFFFF" points="22.5 14.625 11.25 14.625 11.25 18 22.5 18"></polygon>
                    <polygon id="路径" fill-opacity="0.25" fill="#FFFFFF" points="22.5 11.25 11.25 11.25 11.25 14.625 22.5 14.625"></polygon>
                    <polygon id="路径" fill-opacity="0.15" fill="#FFFFFF" points="22.5 7.875 11.25 7.875 11.25 11.25 22.5 11.25"></polygon>
                    <g id="O" transform="translate(4.3985, 4.13)" fill="#FFFFFF" fill-rule="nonzero">
                        <path d="M4.5,10 C7.41428571,10 9,8.96358543 9,5 C9,1.03641457 7.41428571,0 4.5,0 C1.62857143,0 0,1.03641457 0,5 C0,8.96358543 1.62857143,10 4.5,10 Z M4.5,8.22128852 C2.68571429,8.22128852 2.28571429,7.39495798 2.28571429,5 C2.28571429,2.63305322 2.68571429,1.73669468 4.5,1.73669468 C6.32857143,1.73669468 6.72857143,2.63305322 6.72857143,5 C6.72857143,7.39495798 6.32857143,8.22128852 4.5,8.22128852 Z" id="形状"></path>
                    </g>
                </g>
            </g>
        </g>
    </g>
</svg>