<?xml version="1.0" encoding="UTF-8"?>
<svg width="14px" height="15px" viewBox="0 0 14 15" version="1.1" xmlns="http://www.w3.org/2000/svg" xmlns:xlink="http://www.w3.org/1999/xlink">
    <title>形状</title>
    <g id="页面-1" stroke="none" stroke-width="1" fill="none" fill-rule="evenodd">
        <g id="画框-2" transform="translate(-3110, -1392)" fill="#0F1419">
            <g id="编组-10" transform="translate(1800, 1318)">
                <g id="编组-3" transform="translate(1302, 66)">
                    <path d="M9.52373159,14.1937716 L9.52373159,11.1564811 C9.52373159,10.9488754 9.61538462,10.7497242 9.75286416,10.6029441 C9.90180033,10.4561641 10.0851064,10.373615 10.2913257,10.373615 L12.2733224,10.373615 C12.3764321,10.3737324 12.4795417,10.3951036 12.5711948,10.4365542 C12.6628478,10.4780049 12.7545008,10.5385957 12.8232406,10.6146865 L13.6710311,11.5188517 C13.888707,11.7471241 14.1407529,11.9286617 14.4271686,12.0527789 C14.7135843,12.1767787 15.0114566,12.2406574 15.3207856,12.2406574 L19.7086743,12.2406574 C19.9148936,12.2406574 20.1096563,12.3232065 20.2471358,12.4699865 C20.396072,12.6167666 20.4762684,12.8159178 20.4762684,13.0235235 L20.4762684,14.1937716 L9.52373159,14.1937716 Z M9.52373159,15.7595039 L9.52373159,19.6767702 C9.52373159,20.0919816 9.69558101,20.4901666 9.98199673,20.7838441 C10.2684124,21.0774043 10.6464812,21.2423851 11.0589198,21.2423851 L18.9410802,21.2423851 C19.3535188,21.2423851 19.7430442,21.0774043 20.0294599,20.7838441 C20.3158756,20.4901666 20.4762684,20.0919816 20.4762684,19.6767702 L20.4762684,15.7595039 L9.52373159,15.7595039 Z M14.7708674,10.4346755 L13.9230769,9.52968831 C13.7168576,9.30141595 13.4533552,9.11976095 13.1669394,8.99576115 C12.8919804,8.87176135 12.5826514,8.80799993 12.2733224,8.80799993 L10.2913257,8.80799993 C9.68412439,8.80799993 9.09983633,9.05541257 8.67594108,9.49587018 C8.2405892,9.93621037 8,10.5335465 8,11.1564811 L8,19.6767702 C8,20.5071931 8.3207856,21.3036804 8.89361702,21.8909181 C9.46644845,22.4781558 10.2454992,22.8079999 11.0589198,22.8079999 L18.9410802,22.8079999 C19.7545008,22.8079999 20.5335516,22.4781558 21.106383,21.8909181 C21.6792144,21.3036804 22,20.5071931 22,19.6767702 L22,13.0227015 C22,12.3998844 21.7594108,11.8025482 21.3240589,11.3620906 C20.9001637,10.921633 20.3158756,10.6742205 19.7086743,10.6742205 L15.3207856,10.6742205 C15.2176759,10.674338 15.1260229,10.6532016 15.0229133,10.6119858 C14.9312602,10.5708874 14.8510638,10.5105314 14.7708674,10.4346755 Z" id="形状"></path>
                </g>
            </g>
        </g>
    </g>
</svg>