<?xml version="1.0" encoding="UTF-8"?>
<svg width="18px" height="18px" viewBox="0 0 18 18" version="1.1" xmlns="http://www.w3.org/2000/svg" xmlns:xlink="http://www.w3.org/1999/xlink">
    <title>编组</title>
    <defs>
        <path d="M15.75,0 L2.25,0 C1.00735714,0 0,1.00735714 0,2.25 L0,15.75 C0,16.9926429 1.00735714,18 2.25,18 L15.75,18 C16.9926429,18 18,16.9926429 18,15.75 L18,2.25 C18,1.00735714 16.9926429,0 15.75,0 Z" id="path-1"></path>
        <path d="M0,15.75 L0,2.25 C0,1.00735714 1.00735714,0 2.25,0 L15.75,0 C16.9926429,0 18,1.00735714 18,2.25 L18,15.75 C18,16.9926429 16.9926429,18 15.75,18 L2.25,18 C1.00735714,18 0,16.9926429 0,15.75 Z" id="path-3"></path>
        <linearGradient x1="6.35322711%" y1="4.18525134%" x2="100%" y2="94.254383%" id="linearGradient-5">
            <stop stop-color="#9C46FF" offset="0%"></stop>
            <stop stop-color="#0068FF" offset="100%"></stop>
        </linearGradient>
    </defs>
    <g id="页面-1" stroke="none" stroke-width="1" fill="none" fill-rule="evenodd">
        <g id="Clipped备份-3">
            <mask id="mask-2" fill="white">
                <use xlink:href="#path-1"></use>
            </mask>
            <g id="路径"></g>
            <g id="Clipped" mask="url(#mask-2)">
                <mask id="mask-4" fill="white">
                    <use xlink:href="#path-3"></use>
                </mask>
                <g id="路径"></g>
                <g id="编组" mask="url(#mask-4)">
                    <path d="M0,15.75 L0,2.25 C0,1.00735714 1.00735714,0 2.25,0 L15.75,0 C16.9926429,0 18,1.00735714 18,2.25 L18,15.75 C18,16.9926429 16.9926429,18 15.75,18 L2.25,18 C1.00735714,18 0,16.9926429 0,15.75 Z" id="路径" fill="url(#linearGradient-5)"></path>
                    <polygon id="路径" fill-opacity="0.35" fill="#FFFFFF" points="22.5 14.625 11.25 14.625 11.25 18 22.5 18"></polygon>
                    <polygon id="路径" fill-opacity="0.25" fill="#FFFFFF" points="22.5 11.25 11.25 11.25 11.25 14.625 22.5 14.625"></polygon>
                    <polygon id="路径" fill-opacity="0.15" fill="#FFFFFF" points="22.5 7.875 11.25 7.875 11.25 11.25 22.5 11.25"></polygon>
                </g>
            </g>
            <path d="M13.4459806,9.79390359 L13.4459806,6.22066205 C13.4459806,6.06854607 13.3837806,5.92266036 13.2730641,5.81509812 C13.1623475,5.70753587 13.0121836,5.64710804 12.8556068,5.64710804 L5.77112135,5.64710804 C5.61454449,5.64710804 5.4643806,5.70753587 5.35366404,5.81509812 C5.24294748,5.92266036 5.18074756,6.06854607 5.18074756,6.22066205 L5.18074756,11.8586981 L10.1753098,8.95077918 C10.7366357,8.62314259 11.4382389,8.62314259 11.9995648,8.95077918 L13.4459806,9.79390359 Z M13.4459806,11.1302845 L11.385576,9.93155655 C11.2029138,9.82910099 10.9778645,9.82910099 10.7952023,9.93155655 L6.32016897,12.5297563 L12.8556068,12.5297563 C13.0121836,12.5297563 13.1623475,12.4693284 13.2730641,12.3617662 C13.3837806,12.2542039 13.4459806,12.1083182 13.4459806,11.9562022 L13.4459806,11.1302845 Z M5.77112135,4.5 L12.8556068,4.5 C13.3253373,4.5 13.775829,4.68128352 14.1079787,5.00397025 C14.4401284,5.32665698 14.6267281,5.7643141 14.6267281,6.22066205 L14.6267281,11.9562022 C14.6267281,12.9064977 13.8337701,13.6768643 12.8556068,13.6768643 L5.77112135,13.6768643 C4.79295804,13.6768643 4,12.9064977 4,11.9562022 L4,6.22066205 C4,5.27036664 4.79295804,4.5 5.77112135,4.5 L5.77112135,4.5 Z M7.24705581,8.51487813 C6.75797415,8.51487813 6.36149513,8.12969481 6.36149513,7.65454711 C6.36149513,7.1793994 6.75797415,6.79421608 7.24705581,6.79421608 C7.73613746,6.79421608 8.13261648,7.1793994 8.13261648,7.65454711 C8.13261648,8.12969481 7.73613746,8.51487813 7.24705581,8.51487813 Z" id="形状" fill="#FFFFFF" fill-rule="nonzero" mask="url(#mask-2)"></path>
        </g>
    </g>
</svg>