<?xml version="1.0" encoding="UTF-8"?>
<svg width="18px" height="18px" viewBox="0 0 18 18" version="1.1" xmlns="http://www.w3.org/2000/svg" xmlns:xlink="http://www.w3.org/1999/xlink">
    <title>Clipped备份 2</title>
    <defs>
        <path d="M15.75,0 L2.25,0 C1.00735714,0 0,1.00735714 0,2.25 L0,15.75 C0,16.9926429 1.00735714,18 2.25,18 L15.75,18 C16.9926429,18 18,16.9926429 18,15.75 L18,2.25 C18,1.00735714 16.9926429,0 15.75,0 Z" id="path-1"></path>
        <path d="M0,15.75 L0,2.25 C0,1.00735714 1.00735714,0 2.25,0 L15.75,0 C16.9926429,0 18,1.00735714 18,2.25 L18,15.75 C18,16.9926429 16.9926429,18 15.75,18 L2.25,18 C1.00735714,18 0,16.9926429 0,15.75 Z" id="path-3"></path>
    </defs>
    <g id="页面-1" stroke="none" stroke-width="1" fill="none" fill-rule="evenodd">
        <g id="Clipped备份-2">
            <mask id="mask-2" fill="white">
                <use xlink:href="#path-1"></use>
            </mask>
            <g id="路径"></g>
            <g id="Clipped" mask="url(#mask-2)">
                <mask id="mask-4" fill="white">
                    <use xlink:href="#path-3"></use>
                </mask>
                <g id="路径"></g>
                <g id="编组" mask="url(#mask-4)">
                    <path d="M0,15.75 L0,2.25 C0,1.00735714 1.00735714,0 2.25,0 L15.75,0 C16.9926429,0 18,1.00735714 18,2.25 L18,15.75 C18,16.9926429 16.9926429,18 15.75,18 L2.25,18 C1.00735714,18 0,16.9926429 0,15.75 Z" id="路径" fill="#3E3E3E"></path>
                    <polygon id="路径" fill-opacity="0.35" fill="#FFFFFF" points="22.5 14.625 11.25 14.625 11.25 18 22.5 18"></polygon>
                    <polygon id="路径" fill-opacity="0.25" fill="#FFFFFF" points="22.5 11.25 11.25 11.25 11.25 14.625 22.5 14.625"></polygon>
                    <polygon id="路径" fill-opacity="0.15" fill="#FFFFFF" points="22.5 7.875 11.25 7.875 11.25 11.25 22.5 11.25"></polygon>
                </g>
                <g id="图形" mask="url(#mask-4)" fill="#FFFFFF" fill-rule="nonzero">
                    <g transform="translate(4, 4)" id="形状">
                        <path d="M4.99121094,0.0830078125 C2.27050781,0.0830078125 0.0654296875,2.2890625 0.0654296875,5.00878906 C0.0654296875,7.72851563 2.27050781,9.93457031 4.99121094,9.93457031 C7.71191406,9.93457031 9.91699219,7.72949219 9.91699219,5.00878906 C9.91699219,2.28808594 7.7109375,0.0830078125 4.99121094,0.0830078125 Z M9.30078125,5.00878906 L7.45410156,5.00878906 C7.45410156,3.31152344 7.02539062,1.81542969 6.37207031,0.9296875 C8.07226562,1.50683594 9.30078125,3.11621094 9.30078125,5.00878906 L9.30078125,5.00878906 Z M4.99121094,9.31835938 C4.19335938,9.31835938 3.3125,7.77441406 3.16699219,5.62402344 L6.81542969,5.62402344 C6.66992188,7.77539063 5.78808594,9.31835938 4.99121094,9.31835938 Z M3.14355469,5.00878906 C3.14355469,2.54199219 4.11914062,0.69921875 4.99023438,0.69921875 C5.86132813,0.69921875 6.83691406,2.54199219 6.83691406,5.00878906 L3.14355469,5.00878906 Z M3.61035156,0.9296875 C2.95703125,1.81542969 2.52832031,3.31152344 2.52832031,5.00878906 L0.681640625,5.00878906 C0.681640625,3.11621094 1.91015625,1.50683594 3.61035156,0.9296875 Z M0.73046875,5.625 L2.54980469,5.625 C2.63964844,7.06445313 3.03808594,8.31152344 3.61035156,9.08789062 C2.09765625,8.57421875 0.963867188,7.24511719 0.73046875,5.625 Z M6.37207031,9.08789062 C6.94433594,8.31152344 7.34277344,7.06347656 7.43261719,5.625 L9.25195312,5.625 C9.01855469,7.24511719 7.88378906,8.57421875 6.37207031,9.08789062 L6.37207031,9.08789062 Z"></path>
                    </g>
                </g>
            </g>
        </g>
    </g>
</svg>