<?xml version="1.0" encoding="UTF-8"?>
<svg width="16px" height="16px" viewBox="0 0 16 16" version="1.1" xmlns="http://www.w3.org/2000/svg" xmlns:xlink="http://www.w3.org/1999/xlink">
    <title>Clipped备份 3</title>
    <defs>
        <polygon id="path-1" points="16 0 0 0 0 16 16 16"></polygon>
    </defs>
    <g id="页面-1" stroke="none" stroke-width="1" fill="none" fill-rule="evenodd">
        <g id="画框-2" transform="translate(-3729, -1691)">
            <g id="编组-4" transform="translate(3362, 1318)">
                <g id="编组" transform="translate(339, 113)">
                    <g transform="translate(0, 106)">
                        <g transform="translate(0, 154)" id="Clipped备份-3">
                            <g transform="translate(28, 0)">
                                <mask id="mask-2" fill="white">
                                    <use xlink:href="#path-1"></use>
                                </mask>
                                <g id="路径"></g>
                                <path d="M2.5,14.049 L11.27,14.049 C11.938,14.049 12.5267,13.833 13.036,13.402 C13.5453,12.971 13.8553,12.426 13.966,11.768 L14.798,6.798 C14.8747,6.341 14.763,5.935 14.463,5.581 C14.163,5.228 13.7813,5.051 13.318,5.051 L10.796,5.051 C10.806,4.952 10.846,4.701 10.916,4.296 C11.092,3.289 11.18,2.605 11.18,2.244 C11.18,1.614 10.7893,1.1 10.008,0.701 C9.2347,0.306 8.5387,0.279 7.92,0.62 C7.5867,0.803 7.238,1.405 6.874,2.428 C6.352,3.896 5.7977,4.77 5.211,5.05 L4.475,5.049 L2.5,5.049 C2.086,5.049 1.7327,5.196 1.44,5.489 C1.1467,5.782 1,6.135 1,6.55 L1,12.549 C1,12.963 1.1467,13.316 1.44,13.609 C1.7327,13.902 2.086,14.049 2.5,14.049 Z M12.39,12.639 C12.0667,12.912 11.6933,13.049 11.27,13.049 L5,13.049 L5,6.05 L5.314,6.05 C5.3756,6.05 5.4366,6.038 5.494,6.016 C6.1047,5.781 6.6193,5.303 7.038,4.583 C7.2647,4.194 7.5247,3.588 7.818,2.763 C8.0967,1.979 8.2917,1.556 8.403,1.495 C8.7123,1.325 9.0957,1.357 9.553,1.59 C9.971,1.803 10.18,2.021 10.18,2.243 C10.18,2.547 10.097,3.174 9.931,4.123 C9.8397,4.65 9.794,4.971 9.794,5.086 C9.794,5.435 9.9007,5.71 10.114,5.913 C10.2069,6.001 10.33,6.05 10.458,6.05 L13.318,6.05 C13.4727,6.05 13.6,6.109 13.7,6.226 C13.8,6.344 13.8373,6.479 13.812,6.632 L12.979,11.602 C12.909,12.019 12.7123,12.365 12.389,12.638 M4,6.05 L2.5,6.05 C2.1667,6.05 2,6.217 2,6.55 L2,12.549 C2,12.882 2.1667,13.049 2.5,13.049 L4,13.049 L4,6.05 Z" id="形状" fill-opacity="0.4" fill="#000000" mask="url(#mask-2)"></path>
                            </g>
                        </g>
                    </g>
                </g>
            </g>
        </g>
    </g>
</svg>