<svg width="16" height="16" viewBox="0 0 16 16" fill="none" xmlns="http://www.w3.org/2000/svg">
  <path fill-rule="evenodd" clip-rule="evenodd" d="M2.5 14.049H11.27C11.938 14.049 12.527 13.833 13.036 13.402C13.545 12.971 13.855 12.426 13.966 11.768L14.798 6.798C14.875 6.341 14.763 5.935 14.463 5.581C14.163 5.228 13.781 5.051 13.318 5.051H10.796C10.806 4.952 10.846 4.701 10.916 4.296C11.092 3.289 11.18 2.605 11.18 2.244C11.18 1.614 10.789 1.1 10.008 .701C9.235 .306 8.539 .279 7.92 .62C7.587 .803 7.238 1.405 6.874 2.428C6.352 3.896 5.798 4.77 5.211 5.05H2.5C2.086 5.05 1.733 5.197 1.44 5.49C1.147 5.783 1 6.136 1 6.55V12.549C1 12.963 1.147 13.316 1.44 13.609C1.733 13.902 2.086 14.049 2.5 14.049Z" fill="#000" fill-opacity=".85"/>
</svg>
