<?xml version="1.0" encoding="UTF-8"?>
<svg width="20px" height="20px" viewBox="0 0 20 20" version="1.1" xmlns="http://www.w3.org/2000/svg" xmlns:xlink="http://www.w3.org/1999/xlink">
    <title>编组</title>
    <g id="页面-1" stroke="none" stroke-width="1" fill="none" fill-rule="evenodd">
        <g id="画框-2" transform="translate(-448, -733)">
            <g id="编组-4" transform="translate(232, 279)">
                <g id="编组" transform="translate(0, 50)">
                    <g transform="translate(12, 370)">
                        <g transform="translate(0, 28)">
                            <g transform="translate(184, 6)">
                                <g transform="translate(20, 0)">
                                    <rect id="矩形-12" x="0" y="0" width="20" height="20"></rect>
                                    <path d="M4.582,9.334 C4.344,9.334 4.148,9.404 3.994,9.572 C3.826,9.726 3.742,9.922 3.742,10.16 C3.742,10.398 3.826,10.594 3.994,10.762 C4.148,10.916 4.344,11 4.582,11 C4.82,11 5.03,10.916 5.198,10.762 C5.352,10.608 5.436,10.412 5.436,10.16 C5.436,9.922 5.352,9.726 5.198,9.572 C5.03,9.404 4.834,9.334 4.582,9.334 Z M9.258,9.334 C9.02,9.334 8.824,9.404 8.656,9.572 C8.488,9.726 8.418,9.922 8.418,10.16 C8.418,10.398 8.488,10.594 8.656,10.762 C8.824,10.916 9.02,11 9.258,11 C9.496,11 9.706,10.916 9.874,10.762 C10.028,10.608 10.112,10.412 10.112,10.16 C10.112,9.922 10.028,9.726 9.874,9.572 C9.706,9.404 9.496,9.334 9.258,9.334 Z M13.92,9.334 C13.682,9.334 13.486,9.404 13.318,9.572 C13.15,9.726 13.08,9.922 13.08,10.16 C13.08,10.398 13.15,10.594 13.318,10.762 C13.486,10.916 13.682,11 13.92,11 C14.158,11 14.354,10.916 14.522,10.762 C14.69,10.608 14.774,10.412 14.774,10.16 C14.774,9.922 14.69,9.726 14.522,9.572 C14.354,9.404 14.158,9.334 13.92,9.334 Z" id="形状" fill-opacity="0.85" fill="#000000" fill-rule="nonzero" transform="translate(9.258, 10.167) rotate(-90) translate(-9.258, -10.167)"></path>
                                </g>
                            </g>
                        </g>
                    </g>
                </g>
            </g>
        </g>
    </g>
</svg>