<?xml version="1.0" encoding="UTF-8"?>
<svg width="22px" height="22px" viewBox="0 0 22 22" version="1.1" xmlns="http://www.w3.org/2000/svg" xmlns:xlink="http://www.w3.org/1999/xlink">
    <title>编组</title>
    <g id="页面-1" stroke="none" stroke-width="1" fill="none" fill-rule="evenodd">
        <g id="编组">
            <rect id="矩形" x="0" y="0" width="22" height="22"></rect>
            <path d="M8.23944246,5 C8.70433489,5 9.16220909,5.11014844 9.57239836,5.32050247 C9.98231078,5.53077536 10.3316021,5.83426558 10.5897519,6.20494568 L10.9626511,6.741462 C11.0355657,6.84592804 11.1340905,6.93147783 11.2494054,6.99050521 C11.365543,7.04995376 11.49457,7.08105571 11.6246727,7.08105571 L15.3756592,7.08105571 C16.5352333,7.08105571 17.4754341,7.9828722 17.4754341,9.09331246 L17.4754341,15 C17.4754341,16.1046255 16.5800596,16.9999358 15.4754341,16.9998566 L5.30845127,16.9991275 C5.30256879,17 5.29649468,17 5.29040104,17 C4.30183749,17 3.5,16.2325571 3.5,15.2857861 L3.5,7.70535931 C3.5,6.98813595 3.79772066,6.29967779 4.32684589,5.79334048 C4.85648754,5.28537205 5.57504322,5 6.32444495,5 L8.23944246,5 Z M6.32444495,6.2486072 C5.92144341,6.2486072 5.53501058,6.40207775 5.24950323,6.67590143 C4.9646714,6.94846666 4.80433626,7.31923043 4.80433626,7.70535931 L4.80433626,15.2857861 C4.80433626,15.540054 5.0173207,15.7467377 5.28154053,15.7509639 L15.6725578,15.7206233 C15.948129,15.7198187 16.1710978,15.4961979 16.1710978,15.2206254 L16.1710978,9.09331246 C16.1710978,8.6719052 15.8142886,8.32966291 15.3756592,8.32966291 L11.6246727,8.32966291 C11.2794747,8.32966291 10.9392541,8.24765276 10.6343524,8.09157966 C10.3298229,7.93569703 10.0700916,7.71017063 9.87741868,7.4341224 L9.50414764,6.89707276 C9.36539283,6.69783351 9.17730882,6.53441214 8.95639686,6.42109087 C8.73559831,6.30786054 8.48928911,6.2486072 8.23944246,6.2486072 L6.32444495,6.2486072 Z M4,10.5 L17,10.5 L17,11.7 L4,11.7 Z" id="形状结合" fill-opacity="0.85" fill="#000000" fill-rule="nonzero"></path>
        </g>
    </g>
</svg>