<?xml version="1.0" encoding="UTF-8"?>
<svg width="18px" height="18px" viewBox="0 0 18 18" version="1.1" xmlns="http://www.w3.org/2000/svg" xmlns:xlink="http://www.w3.org/1999/xlink">
    <title>形状结合</title>
    <g id="页面-1" stroke="none" stroke-width="1" fill="none" fill-rule="evenodd" fill-opacity="0.85">
        <g id="画框" transform="translate(-6159, -2549)" fill="#000000">
            <g id="编组-3" transform="translate(4840, 2476)">
                <g id="画框-2" transform="translate(950, 50)" fill-rule="nonzero">
                    <g transform="translate(52, 0)" id="编组">
                        <g id="编组" transform="translate(310, 16)">
                            <path d="M16.0254939,17.6573833 C16.2742366,17.6573833 16.4917269,17.7911511 16.6099537,17.9906758 L16.6086213,22.7779565 C16.6086213,22.863256 16.7117519,22.9059743 16.772068,22.8456585 L18.7676919,20.8500449 C18.9954127,20.6223253 19.3646449,20.6223253 19.5923657,20.8500449 C19.8200863,21.0777643 19.8200863,21.4469938 19.5923657,21.6747132 L16.4373987,24.829664 C16.4309626,24.8361 16.4240987,24.8426227 16.4167842,24.8492666 C16.408964,24.856009 16.408964,24.856009 16.4018915,24.8621446 C16.3928927,24.869768 16.3911967,24.8711014 16.3816634,24.8784693 C16.3749311,24.8837493 16.3749311,24.8837493 16.3729845,24.8852223 C16.3690899,24.8881199 16.3652825,24.8908147 16.3544272,24.8983861 C16.344962,24.904815 16.339594,24.9082543 16.3341738,24.9116101 L16.325479,24.9170466 C16.3217021,24.9193237 16.3177639,24.9215757 16.305993,24.9281851 C16.2969322,24.9331576 16.2932394,24.9350387 16.2857858,24.9387508 C16.2794204,24.9419581 16.2775219,24.9429032 16.2752741,24.943964 C16.2715732,24.9457185 16.2689152,24.9469135 16.2612358,24.9503015 C16.2540157,24.9535073 16.2515957,24.9545656 16.2484617,24.9558702 C16.2460894,24.9568507 16.2440969,24.9576351 16.2381776,24.959928 C16.2266304,24.9643645 16.2244418,24.9651893 16.2214972,24.9662435 C16.2195769,24.9669174 16.2195769,24.9669174 16.2103589,24.9699942 C16.2019187,24.972818 16.198346,24.9739824 16.1942971,24.9751986 C16.1912824,24.9760829 16.1912824,24.9760829 16.1846126,24.9779385 C16.1762946,24.9802862 16.1713289,24.9816348 16.1614103,24.9840022 C16.1476958,24.9871514 16.1435837,24.988063 16.1337284,24.9899089 C16.1188183,24.9925682 16.1151037,24.9932044 16.1048219,24.9945835 C16.088752,24.9966087 16.0861511,24.9969216 16.0767913,24.9977256 L16.0618655,24.9988123 C16.0350916,25.0002868 16.0158495,25.0002868 15.9897465,24.9988759 L15.9741381,24.9977432 C15.9648794,24.9969315 15.9624427,24.9966397 15.9509467,24.9951758 C15.9416035,24.9940388 15.9416035,24.9940388 15.9402031,24.9938405 C15.9354551,24.993136 15.9313198,24.9924254 15.9215546,24.9906703 C15.9073075,24.9880532 15.9029601,24.987091 15.8934698,24.9849033 C15.8795889,24.9816348 15.8746231,24.9802862 15.8639989,24.9772942 C15.853272,24.9741928 15.8509543,24.9734466 15.8370833,24.9688432 C15.8257501,24.9649211 15.8229009,24.9638382 15.8111591,24.9592939 C15.7998234,24.954756 15.7980953,24.9540052 15.7899949,24.9504165 C15.7803781,24.9461442 15.7785812,24.9453277 15.7684695,24.9403768 C15.7580899,24.9351969 15.7539791,24.9331029 15.7500221,24.9309819 C15.7480613,24.9299062 15.7480613,24.9299062 15.7410375,24.9259449 C15.7327417,24.9212804 15.7291927,24.919249 15.7206721,24.9140148 C15.7094234,24.9069708 15.7052704,24.9043223 15.7011869,24.9015792 C15.7000195,24.9007833 15.7000195,24.9007833 15.6915951,24.894866 C15.6834857,24.8891897 15.6811014,24.8874947 15.6735527,24.8817506 C15.6602696,24.8714517 15.6582947,24.8699031 15.6557577,24.8678138 C15.6538941,24.8662802 15.6525517,24.8651279 15.644369,24.8580063 C15.6364101,24.8511989 15.6355855,24.8504835 15.634468,24.8494609 C15.6267825,24.8425072 15.6198255,24.8359004 15.6131687,24.8292435 L12.4586221,21.6747132 C12.2309016,21.4469938 12.2309016,21.0777643 12.4586221,20.8500449 C12.6863429,20.6223253 13.0555752,20.6223253 13.283296,20.8500449 L15.2789199,22.8456585 C15.3392359,22.9059743 15.4423666,22.863256 15.4423666,22.7779565 L15.4421945,17.9887249 C15.5606804,17.7902796 15.7775628,17.6573833 16.0254939,17.6573833 Z M10.3252804,12.4586433 C10.5530012,12.2309237 10.9222334,12.2309237 11.1499542,12.4586433 C11.3776748,12.6863627 11.3776748,13.0555922 11.1499542,13.2833116 L9.15433034,15.2789252 C9.09401414,15.3392411 9.13673231,15.4423723 9.22203208,15.4423723 L14.0103179,15.4416188 C14.2093038,15.5599752 14.3426362,15.7771605 14.3426362,16.0254961 C14.3426362,16.274222 14.2088677,16.4917163 14.009342,16.6099476 L9.22203208,16.60862 C9.13673231,16.60862 9.09401414,16.7117511 9.15433034,16.772067 L11.1499542,18.7676807 C11.3776748,18.9954 11.3776748,19.3646296 11.1499542,19.5923489 C10.9222334,19.8200686 10.5530012,19.8200686 10.3252804,19.5923489 L7.17028974,16.4373979 C7.1638539,16.4309621 7.15733117,16.4240982 7.15068729,16.4167837 C7.14394478,16.4089636 7.14394478,16.4089636 7.13931867,16.403621 C7.13445393,16.3980328 7.1334981,16.3969172 7.13218314,16.3953157 C7.13018576,16.3928923 7.12885238,16.3911964 7.12148442,16.3816631 L7.11473137,16.3729842 C7.11183381,16.3690897 7.10913892,16.3652823 7.10156752,16.354427 C7.09564891,16.3457742 7.0930777,16.3417408 7.08811226,16.3338021 L7.08290696,16.325479 C7.08062986,16.3217022 7.07837787,16.317764 7.07204864,16.306488 C7.0667201,16.2967921 7.06459932,16.2926329 7.0612697,16.2859209 C7.05799537,16.2794207 7.0570502,16.2775222 7.05598945,16.2752745 C7.05420068,16.2715167 7.05303039,16.2689164 7.04965197,16.2612596 C7.04649514,16.2540989 7.04535588,16.2514868 7.04410656,16.2484856 C7.04312601,16.2461133 7.04234167,16.2441208 7.04004879,16.2382015 C7.03561228,16.2266544 7.03478744,16.2244659 7.03373322,16.2215213 C7.03305932,16.219601 7.03305932,16.219601 7.02998256,16.2103831 C7.02702882,16.2015215 7.02598476,16.1983152 7.02477815,16.1942981 C7.02389376,16.1912834 7.02389376,16.1912834 7.02203819,16.1846136 C7.01969045,16.1762957 7.01834189,16.17133 7.01597447,16.1614115 C7.01282526,16.1476971 7.01191369,16.143585 7.01006779,16.1337298 C7.0074638,16.1190184 7.00682183,16.1152853 7.00541654,16.1048235 C7.00336032,16.0885001 7.00306853,16.0860634 7.00227435,16.0767932 L7.00118771,16.0618674 C6.99971321,16.035099 6.99971321,16.0158465 7.00112411,15.989749 L7.00225683,15.9741407 C7.00306423,15.9648128 7.00333764,15.9625376 7.00428776,15.9551336 L7.00566318,15.9440224 C7.00686402,15.935458 7.00757456,15.9313227 7.00932974,15.9215576 C7.01194681,15.9073105 7.01290899,15.9029632 7.01509669,15.893473 C7.01858574,15.8788008 7.02018294,15.8728732 7.02270587,15.8640023 C7.02580731,15.8532755 7.02655349,15.8509579 7.03115688,15.8370869 C7.03507903,15.8257538 7.03616189,15.8229046 7.04070626,15.8111628 C7.04532509,15.7996027 7.0460227,15.7979907 7.04956026,15.7899988 C7.05310832,15.781971 7.05431557,15.7792856 7.05960001,15.7684736 C7.06477992,15.758094 7.06687399,15.7539833 7.06899493,15.7500263 C7.07007061,15.7480655 7.07007061,15.7480655 7.07403193,15.7410418 C7.07869652,15.732746 7.08072785,15.7291971 7.08596213,15.7206765 C7.09300613,15.7094279 7.09565463,15.7052749 7.0983978,15.7011914 C7.09919368,15.700024 7.09919368,15.700024 7.10413253,15.6929971 C7.10976181,15.6849223 7.11223942,15.6814329 7.11894173,15.6726464 C7.12852542,15.6602743 7.13007404,15.6582995 7.13216335,15.6557625 L7.14213529,15.6441837 C7.1488472,15.6363374 7.14952255,15.6355604 7.15052173,15.6344692 C7.15749344,15.626764 7.16410026,15.6198072 7.17075716,15.6131503 Z M20.8500434,12.4077001 C21.0777642,12.1799805 21.4469965,12.1799805 21.6747173,12.4077001 L24.8292639,15.5622305 C24.8361596,15.5691662 24.8427614,15.5761091 24.8492403,15.583242 C24.855926,15.5909942 24.855926,15.5909942 24.8617281,15.5976894 C24.869992,15.6074368 24.8715222,15.6093872 24.8783181,15.6182007 L24.8851962,15.6270414 C24.8880938,15.630936 24.8907887,15.6347434 24.8991643,15.6467596 C24.9042787,15.6542514 24.9068499,15.6582848 24.9118153,15.6662235 C24.9192977,15.6783235 24.9215497,15.6822617 24.9281141,15.6939581 C24.9326606,15.702243 24.9338135,15.7044899 24.9371035,15.7110113 L24.9440274,15.7249397 C24.945678,15.7284063 24.9468552,15.7310275 24.9517624,15.7421581 C24.9568016,15.7539357 24.9575859,15.7559282 24.9607081,15.7639897 C24.9643102,15.7733301 24.9650581,15.7753189 24.9660771,15.7781982 C24.967267,15.7815921 24.967267,15.7815921 24.9698958,15.7895188 C24.9726409,15.7977236 24.9739103,15.8016257 24.9763373,15.8098801 C24.9802371,15.8237533 24.9815857,15.828719 24.9839145,15.8384426 C24.9871023,15.852352 24.9880139,15.856464 24.9898598,15.8663192 C24.9923788,15.8804632 24.9930913,15.8846065 24.9937986,15.8893573 C24.994788,15.8973199 24.994788,15.8973199 24.9956491,15.904145 C24.9965906,15.9115489 24.9968824,15.9139856 24.9972016,15.9172569 C24.9974425,15.9196874 24.997572,15.9214111 24.9979814,15.9274477 C24.9981161,15.9294562 24.9981161,15.9294562 24.9986892,15.9371156 C25.0002378,15.9649553 25.0002378,15.9841972 24.9992936,16.0034214 C24.9985257,16.013978 24.9985257,16.013978 24.9978917,16.0228273 C24.9977807,16.0244312 24.9977807,16.0244312 24.9971787,16.0321335 C24.9968824,16.035167 24.9965906,16.0376036 24.9951267,16.0490996 L24.9937172,16.0603529 C24.9932484,16.0635695 24.9926187,16.0673229 24.9906116,16.0785449 C24.9881702,16.091889 24.9872681,16.0960329 24.984839,16.1066422 L24.9826714,16.1160891 C24.9813652,16.1212482 24.979768,16.1271759 24.9772322,16.1361021 C24.9739103,16.1475502 24.9726409,16.1514523 24.9699297,16.1595559 C24.9677027,16.1662594 24.9669885,16.1683875 24.9662136,16.1705479 C24.9648719,16.1742952 24.9637891,16.1771444 24.960683,16.1851675 C24.9578893,16.1923971 24.9569069,16.1949055 24.9557098,16.1978008 C24.9538377,16.2022126 24.9538377,16.2022126 24.9502343,16.2104041 C24.9468739,16.2180199 24.9457036,16.2206202 24.9440581,16.2240756 L24.9387458,16.2347774 C24.935171,16.241955 24.933077,16.2460657 24.930956,16.2500227 C24.9215156,16.2668683 24.9192931,16.2707513 24.9134879,16.280164 C24.9069448,16.2906211 24.9042963,16.2947741 24.9015532,16.2988577 C24.9005791,16.300286 24.9005791,16.300286 24.8939299,16.3097657 C24.8899641,16.3154614 24.8876048,16.3187771 24.8817245,16.3264916 C24.8714255,16.3397747 24.8698769,16.3417496 24.8677876,16.3442866 C24.8662029,16.3462217 24.8651312,16.3474698 24.85798,16.3556752 C24.8507674,16.3641564 24.8507674,16.3641564 24.8493105,16.3657889 C24.8425509,16.3732616 24.8359441,16.3802185 24.8292872,16.3868754 L21.6747407,19.5414057 C21.4470199,19.7691254 21.0777876,19.7691254 20.8500668,19.5414057 C20.6223462,19.3136864 20.6223462,18.9444568 20.8500668,18.7167375 L22.8456907,16.7211238 C22.9060069,16.6608079 22.8632887,16.5576768 22.7779889,16.5576768 L17.9889749,16.5580051 C17.7903791,16.4395503 17.6573615,16.2225798 17.6573615,15.9745529 C17.6573615,15.7256893 17.7912614,15.5081086 17.9909499,15.389922 L22.7779656,15.3914291 C22.8632654,15.3914291 22.9059835,15.2882979 22.8456673,15.227982 L20.8500434,13.2323684 C20.6223229,13.004649 20.6223229,12.6354195 20.8500434,12.4077001 Z M15.9455627,7.00071326 C15.9649242,6.99976225 15.9841768,6.99976225 16.0035382,7.00071326 C16.0144187,7.00150072 16.0144187,7.00150072 16.0216744,7.00201758 C16.0239026,7.00216754 16.0239026,7.00216754 16.0317181,7.00278344 C16.0352109,7.00311326 16.0374862,7.00338667 16.0448902,7.00433679 L16.0598179,7.0062085 C16.0645659,7.00691304 16.0687012,7.00762358 16.0784664,7.00937875 C16.0937002,7.01222154 16.0998893,7.01357395 16.1060544,7.01502977 L16.1154879,7.01718636 C16.1212235,7.01863472 16.1271512,7.02023192 16.1360222,7.02275484 C16.146749,7.02585627 16.1490667,7.02660246 16.1559274,7.0288698 C16.1674211,7.03269946 16.1674211,7.03269946 16.1705236,7.03378631 C16.1742709,7.03512797 16.1771201,7.03621082 16.1851432,7.03931691 C16.1938543,7.04269263 16.1938543,7.04269263 16.1976259,7.04422753 C16.2004222,7.04537399 16.2020342,7.04607161 16.2100261,7.04960915 C16.2180541,7.05315719 16.2207394,7.05436444 16.2240516,7.05594169 L16.2347535,7.06125397 C16.2419312,7.06482875 16.2460419,7.06692281 16.2499989,7.06904375 C16.2519598,7.07011943 16.2519598,7.07011943 16.2589835,7.07408073 C16.2672793,7.0787453 16.2708283,7.08077662 16.2801404,7.0865118 C16.2887032,7.09183678 16.293982,7.09522083 16.2992029,7.09869294 L16.3096032,7.10598237 C16.3165354,7.11083598 16.3189196,7.11253093 16.3273793,7.11899035 C16.3397514,7.12857399 16.3417263,7.1301226 16.3442633,7.1322119 L16.355652,7.14201941 C16.3638577,7.1490594 16.3638577,7.1490594 16.3657892,7.15078232 C16.3731516,7.15743548 16.3801152,7.16405188 16.3869098,7.17083961 L19.5413987,10.3253356 C19.7691195,10.5530552 19.7691195,10.9222848 19.5413989,11.1500041 C19.3136781,11.3777238 18.9444459,11.3777238 18.7167251,11.1500041 L16.7211011,9.15439048 C16.6607851,9.09407476 16.5576545,9.13679304 16.5576545,9.22209257 L16.5595647,14.0083963 C16.4414696,14.2084612 16.2236756,14.3426658 15.9745271,14.3426658 C15.7261902,14.3426658 15.5090038,14.2093341 15.3906468,14.0103492 L15.3913998,9.22209257 C15.3913998,9.13679304 15.2882691,9.09407476 15.2279531,9.15439048 L13.2323292,11.1500041 C13.0046084,11.3777238 12.6353761,11.3777238 12.4076553,11.1500041 C12.1799347,10.9222848 12.1799347,10.5530552 12.4076553,10.3253359 L15.5626225,7.17036147 C15.569219,7.16376507 15.5760595,7.15725988 15.5831359,7.1508507 C15.591057,7.14401664 15.591057,7.14401664 15.5963996,7.13939055 C15.6019878,7.13452583 15.6031034,7.13357 15.604705,7.13225505 C15.6071283,7.13025768 15.6088243,7.1289243 15.6183576,7.12155638 L15.6270365,7.11480336 C15.6309311,7.11190581 15.6347385,7.10921093 15.6468676,7.1007455 C15.655059,7.09521071 15.660427,7.0917714 15.6688383,7.08653709 C15.6783189,7.08070199 15.6822571,7.07845001 15.6940281,7.07184058 C15.7038781,7.06646699 15.7087879,7.06395049 15.7137402,7.06151968 C15.7206007,7.05806759 15.7224991,7.05712243 15.7247469,7.05606167 C15.7284478,7.05430713 15.7311058,7.05311218 15.7387852,7.04972422 C15.745946,7.0465674 15.7485581,7.04542814 15.7515593,7.04417882 C15.7539316,7.04319828 15.7559242,7.04241393 15.7639857,7.03929176 C15.7733907,7.03568457 15.7755792,7.03485974 15.7785238,7.03380551 L15.7896621,7.03005487 C15.7981024,7.02723103 15.801675,7.02606661 15.8057239,7.02485048 C15.8087386,7.02396608 15.8087386,7.02396608 15.8154084,7.02211052 C15.8219731,7.02023192 15.8279008,7.01863472 15.8386108,7.01604681 C15.8523252,7.01289762 15.8564373,7.01198605 15.8662926,7.01014016 C15.8812028,7.00748085 15.8849173,7.00684463 15.8890307,7.00624558 L15.8999904,7.00487783 C15.9115226,7.00340935 15.9139593,7.00311756 15.9172307,7.00279841 L15.9364321,7.00137278 Z" id="形状结合"></path>
                        </g>
                    </g>
                </g>
            </g>
        </g>
    </g>
</svg>