<?xml version="1.0" encoding="UTF-8"?>
<svg width="18px" height="18px" viewBox="0 0 18 18" version="1.1" xmlns="http://www.w3.org/2000/svg" xmlns:xlink="http://www.w3.org/1999/xlink">
    <title>编组</title>
    <g id="页面-1" stroke="none" stroke-width="1" fill="none" fill-rule="evenodd">
        <g id="画框-2" transform="translate(-1824, -402)">
            <g id="编组-4" transform="translate(1800, 279)">
                <g id="编组" transform="translate(0, 50)">
                    <g transform="translate(12, 64)">
                        <g transform="translate(12, 9)">
                            <rect id="矩形-12" x="0" y="0" width="18" height="18"></rect>
                            <path d="M8.8910127,3.2768628 C8.8910127,3.69107636 8.55522626,4.0268628 8.1410127,4.0268628 L6.16654802,4.0268628 C4.78134637,4.0268628 4.45031912,4.05386113 4.19496831,4.18368368 C3.92250063,4.32263873 3.70168,4.5433546 3.56363541,4.81460605 C3.43338693,5.07079331 3.40638861,5.40182056 3.40638861,6.78702222 L3.40638861,11.8328764 C3.40638861,13.218078 3.43338693,13.5491053 3.56309095,13.8042238 C3.70189215,14.0761561 3.92302128,14.2971953 4.1951237,14.4354166 C4.45094322,14.5659563 4.78174918,14.5930358 6.16654802,14.5930358 L11.2124022,14.5930358 C12.597201,14.5930358 12.928007,14.5659563 13.1836944,14.4354841 C13.4556828,14.2966259 13.6765166,14.075837 13.8149425,13.8043007 C13.9454821,13.5484812 13.9725616,13.2176752 13.9725616,11.8328764 L13.9725616,9.85841171 C13.9725616,9.44419814 14.308348,9.10841171 14.7225616,9.10841171 C15.1367752,9.10841171 15.4725616,9.44419814 15.4725616,9.85841171 L15.4725616,11.8328764 C15.4725616,13.519467 15.439749,13.9203099 15.1511773,14.4858256 C14.8691554,15.0390406 14.4192181,15.4888863 13.8656129,15.7715182 C13.2998357,16.0602232 12.8989928,16.0930358 11.2124022,16.0930358 L6.16654802,16.0930358 C4.47995738,16.0930358 4.07911448,16.0602232 3.51456348,15.7721425 C2.96066642,15.4907792 2.50981845,15.0401146 2.22652349,14.4850952 C1.93906299,13.9196858 1.90638861,13.5190642 1.90638861,11.8328764 L1.90638861,6.78702222 C1.90638861,5.10083439 1.93906299,4.70021278 2.22666017,4.13453464 C2.50870023,3.58033827 2.95909048,3.13016167 3.51432916,2.84699768 C4.07973859,2.55953719 4.48036019,2.5268628 6.16654802,2.5268628 L8.1410127,2.5268628 C8.55522626,2.5268628 8.8910127,2.86264924 8.8910127,3.2768628 Z M15.4194064,2.5806393 C15.8464523,3.0075722 16.0885113,3.58542919 16.0935365,4.18960092 C16.098406,4.79362174 15.865634,5.37550069 15.4371751,5.81763669 L9.03815444,12.2166573 C8.89750216,12.3573096 8.70673672,12.4363272 8.50782435,12.4363272 L6.31397472,12.4363272 C5.89976116,12.4363272 5.56397472,12.1005408 5.56397472,11.6863272 L5.56397472,9.49247759 C5.56397472,9.29356522 5.64299235,9.10279979 5.78364463,8.9621475 L12.1910525,2.55487019 C12.6243969,2.1349175 13.2055143,1.90256769 13.8111819,1.90643778 C14.4149196,1.9116921 14.9925409,2.15379112 15.4194064,2.5806393 Z M13.2433254,3.62378706 L7.06397472,9.80313777 L7.06397472,10.9363272 L8.19716876,10.9363272 L14.3681699,4.76545498 C14.5142212,4.61469519 14.5952812,4.41206304 14.5935868,4.20188499 C14.5918355,3.99132696 14.5075007,3.79000467 14.3588694,3.64141868 L14.3587886,3.64133785 C14.2100818,3.49263103 14.0086772,3.40821339 13.7998652,3.40639409 C13.58822,3.40504242 13.3855671,3.48606971 13.2433254,3.62378706 Z M15.4194488,2.58067768 L15.4194064,2.5806393 C15.4193948,2.58062373 15.4193814,2.58061029 15.4193679,2.58059686 Z" id="形状结合" fill="#0A0A0A" fill-rule="nonzero"></path>
                        </g>
                    </g>
                </g>
            </g>
        </g>
    </g>
</svg>