<?xml version="1.0" encoding="UTF-8"?>
<svg width="42px" height="20px" viewBox="0 0 42 20" version="1.1" xmlns="http://www.w3.org/2000/svg" xmlns:xlink="http://www.w3.org/1999/xlink">
    <title>编组</title>
    <g id="页面-1" stroke="none" stroke-width="1" fill="none" fill-rule="evenodd">
        <g id="画框-2" transform="translate(-1984, -401)">
            <g id="编组-4" transform="translate(1800, 279)">
                <g id="编组" transform="translate(0, 50)">
                    <g transform="translate(12, 64)">
                        <g transform="translate(172, 8)">
                            <path d="M0,4 C0,1.7909 1.791,0 4,0 L16,0 C18.209,0 20,1.7909 20,4 L20,16 C20,18.209 18.209,20 16,20 L4,20 C1.791,20 0,18.209 0,16 L0,4 Z" id="路径" fill="#EFEFEF"></path>
                            <path d="M9.009,11.076 L10.828,11.076 L10.828,9.248 L9.009,9.248 L9.009,11.076 Z M9.009,11.99 L9.009,13.036 C9.009,13.563 8.818,14.015 8.438,14.39 C8.057,14.765 7.597,14.952 7.058,14.952 C6.524,14.952 6.067,14.765 5.687,14.39 C5.312,14.009 5.124,13.549 5.124,13.01 C5.124,12.482 5.312,12.028 5.687,11.647 C6.067,11.267 6.519,11.076 7.04,11.076 L8.095,11.076 L8.095,9.248 L7.04,9.248 C6.519,9.248 6.067,9.058 5.687,8.677 C5.312,8.296 5.124,7.839 5.124,7.306 C5.124,6.772 5.312,6.318 5.687,5.943 C6.067,5.562 6.524,5.372 7.058,5.372 C7.597,5.372 8.057,5.56 8.438,5.935 C8.818,6.31 9.009,6.761 9.009,7.288 L9.009,8.334 L10.828,8.334 L10.828,7.288 C10.828,6.761 11.019,6.31 11.399,5.935 C11.78,5.56 12.24,5.372 12.779,5.372 C13.318,5.372 13.775,5.562 14.15,5.943 C14.525,6.318 14.713,6.772 14.713,7.306 C14.713,7.839 14.525,8.296 14.15,8.677 C13.775,9.058 13.324,9.248 12.797,9.248 L11.742,9.248 L11.742,11.076 L12.797,11.076 C13.324,11.076 13.775,11.267 14.15,11.647 C14.525,12.028 14.713,12.482 14.713,13.01 C14.713,13.549 14.525,14.009 14.15,14.39 C13.775,14.765 13.318,14.952 12.779,14.952 C12.24,14.952 11.78,14.765 11.399,14.39 C11.019,14.015 10.828,13.563 10.828,13.036 L10.828,11.99 L9.009,11.99 Z M8.095,8.334 L8.095,7.306 C8.095,7.024 7.992,6.784 7.787,6.585 C7.588,6.38 7.345,6.277 7.058,6.277 C6.782,6.277 6.542,6.38 6.337,6.585 C6.138,6.784 6.038,7.024 6.038,7.306 C6.038,7.587 6.138,7.83 6.337,8.035 C6.542,8.234 6.785,8.334 7.066,8.334 L8.095,8.334 Z M8.095,11.99 L7.066,11.99 C6.785,11.99 6.542,12.093 6.337,12.298 C6.138,12.497 6.038,12.734 6.038,13.01 C6.038,13.297 6.138,13.543 6.337,13.748 C6.542,13.947 6.785,14.047 7.066,14.047 C7.348,14.047 7.588,13.947 7.787,13.748 C7.992,13.543 8.095,13.3 8.095,13.019 L8.095,11.99 Z M11.742,8.334 L12.779,8.334 C13.055,8.334 13.292,8.234 13.491,8.035 C13.696,7.83 13.799,7.587 13.799,7.306 C13.799,7.024 13.699,6.784 13.5,6.585 C13.301,6.38 13.058,6.277 12.771,6.277 C12.489,6.277 12.246,6.38 12.041,6.585 C11.842,6.784 11.742,7.024 11.742,7.306 L11.742,8.334 Z M11.742,11.99 L11.742,13.019 C11.742,13.3 11.842,13.543 12.041,13.748 C12.246,13.947 12.489,14.047 12.771,14.047 C13.058,14.047 13.301,13.947 13.5,13.748 C13.699,13.543 13.799,13.297 13.799,13.01 C13.799,12.734 13.696,12.497 13.491,12.298 C13.292,12.093 13.055,11.99 12.779,11.99 L11.742,11.99 Z" id="形状" fill="#6D6D6D" fill-rule="nonzero"></path>
                            <path d="M22,4 C22,1.7909 23.791,0 26,0 L38,0 C40.209,0 42,1.7909 42,4 L42,16 C42,18.209 40.209,20 38,20 L26,20 C23.791,20 22,18.209 22,16 L22,4 Z" id="路径" fill="#EFEFEF"></path>
                            <path d="M33.687,9.907 C33.687,8.408 33.532,7.337 33.222,6.694 C32.916,6.052 32.413,5.73 31.711,5.73 C31.014,5.73 30.51,6.052 30.2,6.694 C29.895,7.337 29.742,8.408 29.742,9.907 C29.742,11.402 29.895,12.471 30.2,13.113 C30.51,13.756 31.014,14.077 31.711,14.077 C32.413,14.077 32.916,13.758 33.222,13.12 C33.532,12.478 33.687,11.407 33.687,9.907 Z M35.129,9.907 C35.129,11.685 34.846,13.011 34.281,13.886 C33.721,14.761 32.864,15.198 31.711,15.198 C30.558,15.198 29.701,14.763 29.141,13.893 C28.58,13.022 28.3,11.694 28.3,9.907 C28.3,8.125 28.58,6.797 29.141,5.922 C29.706,5.047 30.562,4.609 31.711,4.609 C32.864,4.609 33.721,5.047 34.281,5.922 C34.846,6.797 35.129,8.125 35.129,9.907 Z" id="形状" fill="#6D6D6D" fill-rule="nonzero"></path>
                        </g>
                    </g>
                </g>
            </g>
        </g>
    </g>
</svg>