<?xml version="1.0" encoding="UTF-8"?>
<svg width="18px" height="18px" viewBox="0 0 18 18" version="1.1" xmlns="http://www.w3.org/2000/svg" xmlns:xlink="http://www.w3.org/1999/xlink">
    <title>编组</title>
    <g id="页面-1" stroke="none" stroke-width="1" fill="none" fill-rule="evenodd">
        <g id="画框-2" transform="translate(-1824, -478)">
            <g id="编组-4" transform="translate(1800, 279)">
                <g id="编组-11" transform="translate(0, 50)">
                    <g transform="translate(12, 140)">
                        <g id="编组" transform="translate(12, 9)">
                            <rect id="矩形-12" x="0" y="0" width="18" height="18"></rect>
                            <path d="M7.85811336,3.17000247 C8.26802578,3.38027536 8.61731705,3.68376558 8.87546689,4.05444568 L9.2483661,4.590962 C9.32128066,4.69542804 9.41980552,4.78097783 9.53512036,4.84000521 C9.65125798,4.89945376 9.78028497,4.93055571 9.91038768,4.93055571 L13.6613742,4.93055571 C14.8209483,4.93055571 15.7611491,5.8323722 15.7611491,6.94281246 L15.7611491,7.74900375 C16.4871266,7.93060979 16.9525968,8.66253671 16.7295511,9.39494006 L15.4973061,13.4054015 C15.3688876,13.8222451 15.1033208,14.188281 14.741469,14.4472606 C14.3782779,14.7084688 13.9365696,14.8495 13.4823134,14.8495 L3.59416627,14.8486275 C3.58828379,14.8495 3.58220968,14.8495 3.57611604,14.8495 C2.58755249,14.8495 1.785715,14.0820571 1.785715,13.1352861 L1.785715,5.55485931 C1.785715,4.83763595 2.08343566,4.14917779 2.61256089,3.64284048 C3.14220254,3.13487205 3.86075822,2.8495 4.61015995,2.8495 L6.52515746,2.8495 C6.99004989,2.8495 7.44792409,2.95964844 7.85811336,3.17000247 Z M7.32281459,8.95419519 C6.96909789,8.95419519 6.6591691,9.1764058 6.55909556,9.50239647 L5.3004019,13.6001708 L13.4823735,13.6008928 C13.6540851,13.6008928 13.8208239,13.5476555 13.9592163,13.4481254 C14.0965131,13.3498604 14.1973676,13.2108505 14.2461075,13.0526427 L15.4777804,9.04404897 C15.4917261,8.9982559 15.456623,8.95332117 15.4087752,8.95332117 L15.1270626,8.95332117 C15.1211706,8.9541149 15.1150856,8.95419519 15.1089809,8.95419519 L7.32281459,8.95419519 Z M4.61015995,4.0981072 C4.20715841,4.0981072 3.82072558,4.25157775 3.53521823,4.52540143 C3.2503864,4.79796666 3.09005126,5.16873043 3.09005126,5.55485931 L3.09005126,13.1352861 C3.09005126,13.389554 3.3030357,13.5962377 3.56725553,13.6004639 L3.57702839,13.6000215 C3.6822356,13.6000188 3.78467055,13.5674631 3.86882745,13.5073135 C3.95243007,13.4475601 4.01372952,13.3630452 4.04350768,13.2659538 L5.30770492,9.15026205 C5.57086442,8.29301698 6.39018243,7.70558799 7.32281459,7.70558799 L14.4568128,7.705588 L14.4568128,6.94281246 C14.4568128,6.5214052 14.1000036,6.17916291 13.6613742,6.17916291 L9.91038768,6.17916291 C9.56518969,6.17916291 9.22496907,6.09715276 8.92006745,5.94107966 C8.61553793,5.78519703 8.35580664,5.55967063 8.16313368,5.2836224 L7.78986264,4.74657276 C7.65110783,4.54733351 7.46302382,4.38391214 7.24211186,4.27059087 C7.02131331,4.15736054 6.77500411,4.0981072 6.52515746,4.0981072 L4.61015995,4.0981072 Z" id="路径" fill-opacity="0.85" fill="#000000" fill-rule="nonzero"></path>
                        </g>
                    </g>
                </g>
            </g>
        </g>
    </g>
</svg>