<?xml version="1.0" encoding="UTF-8"?>
<svg width="22px" height="22px" viewBox="0 0 22 22" version="1.1" xmlns="http://www.w3.org/2000/svg">
  <title>新增分组</title>
  <rect x="0" y="0" width="22" height="22" fill="none"/>
  <g transform="translate(3.5, 5)" fill="#000000" fill-rule="nonzero">
    <path d="M13,8.1 C13.1504156,8.1 13.2881154,8.18438256 13.3564026,8.3184038 C13.4,8.4039685 13.4,8.515979 13.4,8.74 L13.4,9.7 L14.36,9.7 C14.584021,9.7 14.6960315,9.7 14.7815962,9.74359739 C14.9156174,9.81188462 15,9.94958444 15,10.1 C15,10.2504156 14.9156174,10.3881154 14.7815962,10.4564026 C14.6960315,10.5 14.584021,10.5 14.36,10.5 L13.4,10.5 L13.4,11.46 C13.4,11.684021 13.4,11.7960315 13.3564026,11.8815962 C13.2881154,12.0156174 13.1504156,12.1 13,12.1 C12.8495844,12.1 12.7118846,12.0156174 12.6435974,11.8815962 C12.6,11.7960315 12.6,11.684021 12.6,11.46 L12.6,10.5 L11.64,10.5 C11.415979,10.5 11.3039685,10.5 11.2184038,10.4564026 C11.0843826,10.3881154 11,10.2504156 11,10.1 C11,9.94958444 11.0843826,9.81188462 11.2184038,9.74359739 C11.3039685,9.7 11.415979,9.7 11.64,9.7 L12.6,9.7 L12.6,8.74 C12.6,8.515979 12.6,8.4039685 12.6435974,8.3184038 C12.7118846,8.18438256 12.8495844,8.1 13,8.1 Z M4.73944246,0 C5.20433489,0 5.66220909,0.110148437 6.07239836,0.320502472 C6.48231078,0.530775362 6.83160205,0.834265578 7.08975189,1.20494568 L7.4626511,1.741462 C7.53556566,1.84592804 7.63409052,1.93147783 7.74940536,1.99050521 C7.86554298,2.04995376 7.99456997,2.08105571 8.12467268,2.08105571 L11.8756592,2.08105571 C13.0352333,2.08105571 13.9754341,2.9828722 13.9754341,4.09331246 L13.9782452,5.69816936 C13.9792138,6.25116825 13.5311676,6.69996459 12.9781678,6.69992097 L1.304,6.699 L1.30433626,10.2857861 C1.30433626,10.540054 1.5173207,10.7467377 1.78154053,10.7509639 L8.86400307,10.7289746 C9.21493461,10.7278851 9.5,11.0120668 9.5,11.363 C9.5,11.7142548 9.21525481,11.9990047 8.864,11.9990105 L1.80845127,11.9991275 C1.80256879,12 1.79649468,12 1.79040104,12 C0.80183749,12 0,11.2325571 0,10.2857861 L0,2.70535931 C0,1.98813595 0.297720659,1.29967779 0.82684589,0.793340482 C1.35648754,0.285372052 2.07504322,0 2.82444495,0 L4.73944246,0 Z M2.82444495,1.2486072 C2.42144341,1.2486072 2.03501058,1.40207775 1.74950323,1.67590143 C1.4646714,1.94846666 1.30433626,2.31923043 1.30433626,2.70535931 L1.304,5.499 L12.6710978,5.499 L12.6710978,4.09331246 C12.6710978,3.6719052 12.3142886,3.32966291 11.8756592,3.32966291 L8.12467268,3.32966291 C7.77947469,3.32966291 7.43925407,3.24765276 7.13435245,3.09157966 C6.82982293,2.93569703 6.57009164,2.71017063 6.37741868,2.4341224 L6.00414764,1.89707276 C5.86539283,1.69783351 5.67730882,1.53441214 5.45639686,1.42109087 C5.23559831,1.30786054 4.98928911,1.2486072 4.73944246,1.2486072 Z"/>
  </g>
</svg>
