<?xml version="1.0" encoding="UTF-8"?>
<svg width="22px" height="22px" viewBox="0 0 22 22" version="1.1" xmlns="http://www.w3.org/2000/svg" xmlns:xlink="http://www.w3.org/1999/xlink">
    <title>编组</title>
    <g id="页面-1" stroke="none" stroke-width="1" fill="none" fill-rule="evenodd">
        <g id="画框-2" transform="translate(-3540, -1455)">
            <g id="编组" transform="translate(3524, 1414)">
                <g transform="translate(4, 36)">
                    <g transform="translate(12, 5)">
                        <rect id="矩形" x="0" y="0" width="22" height="22"></rect>
                        <path d="M16.7106654,6.51378592 C16.9832775,6.74294117 17.0899791,7.13406164 16.9959122,7.55937321 C16.9018452,7.98468478 16.6190906,8.38956482 16.2400208,8.64174416 L15.0727026,9.41836016 L12.823948,12.1006888 L12.5380873,14.5564113 C12.479788,15.0564643 12.1474269,15.5532552 11.6875963,15.8276679 C11.2277657,16.1020807 10.7250135,16.1036597 10.4010851,15.8317085 L8.42207209,14.1689329 L4.70022829,18.6203118 L3.87046384,17.9279876 L7.59446019,13.4740664 L5.54714789,11.7543985 C5.22379581,11.4827236 5.13813434,10.9881834 5.32785131,10.488357 C5.51756828,9.98853049 5.94788769,9.57503821 6.42948523,9.42980114 L8.86612318,8.6948711 L11.0748364,6.06023893 L11.6253705,4.78008331 C11.7699035,4.44384938 12.0250352,4.14727713 12.3346233,3.95562826 C12.6248621,3.77595744 12.9406666,3.70230679 13.2206286,3.74755382 L13.2761249,3.75819234 C13.4155467,3.78920067 13.5406112,3.85028079 13.6450039,3.93787664 L16.7106654,6.51378592 Z M12.8609762,4.80589446 C12.7260179,4.88943967 12.6077339,5.02693638 12.5440222,5.17515176 L11.9934881,6.45530738 L11.9354871,6.59017701 L11.841168,6.70268414 L9.6324548,9.33731631 L9.44068062,9.56607142 L9.15489054,9.6522704 L6.71821494,10.3872118 C6.53933651,10.4411568 6.34421288,10.6286503 6.26276966,10.8432199 C6.23468651,10.9172074 6.2254259,10.9791179 6.22858202,11.0208155 L8.23763595,12.7083478 L8.29764796,12.7587557 L9.06535597,13.4033051 L11.0058372,15.0337063 C11.0475495,15.0295461 11.1070381,15.0095957 11.1751419,14.9689535 C11.3725626,14.8511389 11.5232045,14.6259695 11.5447944,14.4407862 L11.8306551,11.9850636 L11.8652733,11.6876716 L12.0576242,11.4582342 L14.3063788,8.77590562 L14.3988956,8.665551 L14.5187908,8.5857848 L15.6861327,7.80915305 C15.852546,7.69844523 15.9819778,7.51311013 16.0195084,7.34342013 C16.0285817,7.30239636 16.0308467,7.26985421 16.0292672,7.24738824 L13.0380538,4.73403345 C13.0033168,4.73748517 12.9391801,4.75748274 12.8609762,4.80589446 Z M16.7428305,6.47550531 C17.0306843,6.71747253 17.1425963,7.12769194 17.0447324,7.57017086 C16.9478386,8.00826351 16.6574179,8.4241208 16.2677164,8.68337292 L15.1063929,9.45600062 L12.8718817,12.1213396 L12.5877509,14.5622014 C12.5276171,15.077989 12.1861701,15.588361 11.713219,15.8706037 C11.2363475,16.1551859 10.7105924,16.1568371 10.3689209,15.8699899 L8.42828144,14.2394559 L4.73858692,18.6523838 C4.72088691,18.6735533 4.68938344,18.6763816 4.66819576,18.6587034 L3.83843119,17.9663794 C3.81726208,17.9486164 3.81437942,17.9171157 3.83210533,17.8959154 L7.52410192,13.4802661 L5.51498418,11.7926803 C5.17393667,11.506138 5.08435557,10.988969 5.28110539,10.4706138 C5.47623605,9.95652449 5.91831525,9.53173228 6.41504686,9.38193118 L8.83739532,8.65131109 L11.0318039,6.03374205 L11.5794347,4.76033741 C11.728012,4.41469503 11.9899861,4.110169 12.3083056,3.91311495 C12.6078336,3.7276937 12.9356516,3.65084747 13.2300421,3.69844795 L13.28698,3.7093849 C13.4339304,3.74206763 13.5663657,3.806621 13.677169,3.89959603 L16.7428305,6.47550531 Z M13.2667114,3.80729821 L13.2126512,3.79691333 C12.9447235,3.75361127 12.6409041,3.82483182 12.3609409,3.99814157 C12.0600844,4.18438526 11.811795,4.47300373 11.6713031,4.79983673 L11.120769,6.07999235 L11.113153,6.09236119 L8.90443976,8.72699336 C8.89818368,8.73445584 8.88988463,8.73992907 8.88056154,8.74274107 L6.44392172,9.47767168 C5.97746013,9.61834414 5.55890051,10.0205365 5.37459723,10.5061001 C5.19191312,10.9873979 5.27365494,11.4593092 5.57930668,11.7161126 L7.62661898,13.4357804 C7.64772993,13.4535129 7.65050338,13.4849876 7.6328187,13.5061385 L3.9409277,17.9216616 L4.69390869,18.5499206 L8.38371347,14.1368608 C8.40145649,14.1156399 8.4330581,14.1128575 8.45423629,14.1306515 L10.4332344,15.7934146 C10.7394346,16.0504823 11.2191838,16.0489755 11.6619736,15.7847322 C12.1086837,15.5181494 12.4319588,15.0349395 12.4884227,14.5506301 L12.7742833,12.0949075 C12.7754125,12.0852072 12.7793577,12.0760498 12.7856318,12.068566 L15.0343864,9.38623743 L15.045007,9.37673139 L16.2123264,8.6001146 C16.5807634,8.35500884 16.8558518,7.96110604 16.947092,7.54857556 C17.037362,7.14043146 16.9358708,6.76841002 16.6784927,6.55206021 L13.6128645,3.97617886 C13.5145168,3.89365537 13.3967121,3.83623341 13.2667114,3.80729821 Z M16.0614323,7.20910764 C16.0718026,7.2178213 16.078194,7.23036956 16.079144,7.2438814 C16.0812535,7.27388328 16.0777057,7.31182039 16.0683286,7.35421779 C16.0274146,7.5392051 15.8885638,7.73453759 15.7138283,7.85078182 L14.5464864,8.62741357 L14.4325859,8.70319145 L14.344695,8.80802835 L12.0959404,11.490357 L11.913207,11.7083225 L11.8803197,11.9908448 L11.594458,14.4465763 C11.5705045,14.652033 11.4069503,14.8888439 11.2007646,15.0118892 C11.1313586,15.0533086 11.0643417,15.0781194 11.0107994,15.0834595 C10.9973834,15.0847975 10.9840012,15.0806541 10.973673,15.0719877 L9.03320588,13.4415983 L8.26548917,12.7970416 L8.20547716,12.7466337 L6.19642323,11.0591015 C6.18612033,11.0504474 6.17974017,11.0380061 6.17872464,11.0245893 C6.17467228,10.9710509 6.1874005,10.9008872 6.21602374,10.8254767 C6.30112057,10.6012814 6.50547882,10.3991432 6.70377657,10.3393418 L9.14045217,9.60440043 L9.41195275,9.52251141 L9.59413822,9.30519405 L11.8028515,6.67056188 L11.8924546,6.56368013 L11.9475555,6.43555396 L12.4980864,5.15540586 C12.5657408,4.99801818 12.6907522,4.85246565 12.8346586,4.76338116 L12.8626181,4.7468677 C12.9274223,4.71042264 12.9885676,4.68870452 13.0331098,4.68427848 C13.0465204,4.68294591 13.0598953,4.68709022 13.070219,4.69575283 L16.0614323,7.20910764 Z M12.8872938,4.84840779 L12.8406651,4.8800804 C12.7338483,4.95921579 12.6420873,5.07362685 12.5899548,5.19490518 L12.0394207,6.4750608 L11.9814197,6.60993043 L11.9738037,6.62229927 L11.8794846,6.7348064 L9.67077138,9.36943857 L9.4789972,9.59819368 C9.47274112,9.60565615 9.46444207,9.61112939 9.45511898,9.61394138 L9.1693289,9.70014036 L6.73265142,10.4350823 C6.56517981,10.4855873 6.38395632,10.6648421 6.30951558,10.860963 C6.28960466,10.9134201 6.27925226,10.9611868 6.27821427,10.9972067 L8.26979474,12.6700619 L8.32979805,12.7204625 L9.09752017,13.3650237 L11.0204933,14.9807145 C11.0558774,14.9734024 11.1012234,14.9548392 11.1495192,14.9260178 C11.3298869,14.8183798 11.4749151,14.608393 11.4951298,14.4350049 L11.7809904,11.9792823 L11.8156086,11.6818904 C11.8167378,11.67219 11.820683,11.6630327 11.8269571,11.6555489 L12.019308,11.4261115 L14.2680626,8.7437829 L14.3605794,8.63342827 L14.3712,8.62392223 L14.4910952,8.54415604 L15.6584383,7.76752349 C15.8121411,7.66527145 15.9354964,7.49173768 15.9706882,7.33262248 C15.9758939,7.30908558 15.9787591,7.28803889 15.9794808,7.27086268 L13.0235695,4.78717031 C12.9887845,4.79520892 12.9395356,4.81606777 12.8872938,4.84840779 Z" id="形状结合" fill="#000000" fill-rule="nonzero"></path>
                    </g>
                </g>
            </g>
        </g>
    </g>
</svg>