<?xml version="1.0" encoding="UTF-8"?>
<svg width="18" height="18" viewBox="0 0 18 18" fill="none" xmlns="http://www.w3.org/2000/svg">
  <title>新建会话</title>
  <path transform="translate(-7 -7)" fill="#000" fill-opacity=".85" fill-rule="nonzero" d="M15.5668726,8.6452443 C15.5668726,9.05945786 15.2310862,9.3952443 14.8168726,9.3952443 L12.3116741,9.3952443 C10.5136794,9.3952443 10.084319,9.4302626 9.71854603,9.61622501 C9.33494749,9.81185537 9.0239165,10.1227388 8.8293944,10.5049661 C8.64300607,10.8715755 8.60798776,11.3009359 8.60798776,13.0989306 L8.60798776,19.5011047 C8.60798776,21.2990994 8.64300607,21.7284598 8.82884994,22.0940005 C9.02430745,22.476931 9.33574993,22.7882468 9.71870142,22.9827762 C10.0849431,23.1696621 10.5140822,23.204791 12.3116741,23.204791 L18.7138482,23.204791 C20.5114401,23.204791 20.9405792,23.1696621 21.3066887,22.9828436 C21.6896187,22.7873465 22.0006038,22.4764247 22.1955197,22.0940774 C22.3824056,21.7278357 22.4175345,21.2986966 22.4175345,19.5011047 L22.4175345,16.9959062 C22.4175345,16.5816926 22.7533209,16.2459062 23.1675345,16.2459062 C23.5817481,16.2459062 23.9175345,16.5816926 23.9175345,16.9959062 L23.9175345,19.5011047 C23.9175345,21.6004884 23.8766724,22.0996645 23.5317545,22.7756023 C23.1932426,23.4396282 22.6531541,23.9796069 21.9886072,24.3188777 C21.3124079,24.663929 20.8132319,24.704791 18.7138482,24.704791 L12.3116741,24.704791 C10.2122904,24.704791 9.71311433,24.663929 9.0381412,24.319502 C8.37339506,23.9818307 7.83223375,23.4408895 7.49228247,22.7748719 C7.14868213,22.0990404 7.10798776,21.6000856 7.10798776,19.5011047 L7.10798776,13.0989306 C7.10798776,10.9999498 7.14868213,10.500995 7.49241916,9.82489469 C7.83093673,9.15972249 8.37153735,8.61937831 9.03790687,8.27953901 C9.71373843,7.93593866 10.2126932,7.8952443 12.3116741,7.8952443 L14.8168727,7.89524431 C15.2310862,7.8952443 15.5668726,8.23103073 15.5668726,8.6452443 Z M23.9091495,7.90443901 C24.4135694,8.40872236 24.6994975,9.09130291 24.7054333,9.80495059 C24.7111852,10.5184251 24.4362343,11.2057419 23.9316831,11.7264232 L15.812613,19.8454934 C15.6719607,19.9861457 15.4811952,20.0651633 15.2822829,20.0651633 L12.4987289,20.0651633 C12.0845154,20.0651633 11.7487289,19.7293769 11.7487289,19.3151633 L11.7487289,16.5316094 C11.7487289,16.332697 11.8277465,16.1419316 11.9683988,16.0012793 L20.0958563,7.8739524 C20.6076864,7.37793948 21.2941421,7.10347196 22.0094225,7.10804209 C22.7226025,7.11424889 23.4049267,7.40023355 23.9091495,7.90443901 Z M21.1481292,8.94286927 L13.2487289,16.8422695 L13.2487289,18.5651633 L14.9716263,18.5651633 L22.8626779,10.6742415 C23.0848216,10.4449364 23.2080604,10.1368664 23.2054836,9.81723466 C23.2028217,9.49720064 23.0746178,9.19115475 22.8486127,8.96521853 L22.8485318,8.9651377 C22.6224676,8.73907351 22.3163601,8.61077017 21.9981058,8.6079984 C21.6768477,8.60594669 21.3688565,8.72909169 21.1481292,8.94286927 Z"/>
</svg>
