<?xml version="1.0" encoding="UTF-8"?>
<svg width="16px" height="16px" viewBox="0 0 16 16" version="1.1" xmlns="http://www.w3.org/2000/svg" xmlns:xlink="http://www.w3.org/1999/xlink">
    <title>Clipped备份 4</title>
    <defs>
        <polygon id="path-1" points="16 0 0 0 0 16 16 16"></polygon>
    </defs>
    <g id="页面-1" stroke="none" stroke-width="1" fill="none" fill-rule="evenodd">
        <g id="画框-2" transform="translate(-3785, -1691)">
            <g id="编组-4" transform="translate(3362, 1318)">
                <g id="编组" transform="translate(339, 113)">
                    <g transform="translate(0, 106)">
                        <g transform="translate(0, 154)" id="Clipped备份-4">
                            <g transform="translate(84, 0)" id="编组">
                                <mask id="mask-2" fill="white">
                                    <use xlink:href="#path-1"></use>
                                </mask>
                                <g id="路径"></g>
                                <path d="M13.8222746,6.23683027 L11.1818793,6.23683027 C10.9640948,6.23686477 10.7628388,6.12069501 10.6539366,5.93208909 C10.5450344,5.74348317 10.5450344,5.51110114 10.6539366,5.32249522 C10.7628388,5.1338893 10.9640948,5.01771954 11.1818793,5.01775404 L12.2423445,5.01775404 C11.2546108,3.6161123 9.64663823,2.78276958 7.93196118,2.78386862 C5.01554604,2.78422903 2.65158292,5.14873855 2.65182318,8.06522704 C2.65206344,10.9817155 5.01641612,13.3458355 7.93283128,13.3457154 C10.8492464,13.3455953 13.2134044,10.9812805 13.2134044,8.06479165 C13.2061243,7.84238654 13.3206179,7.63368767 13.5121,7.52033002 C13.7035821,7.40697237 13.9416196,7.40697237 14.1331017,7.52033002 C14.3245838,7.63368767 14.4390775,7.84238654 14.4317974,8.06479165 C14.4317974,11.6541492 11.5212282,14.5647916 7.93196118,14.5647916 C4.34269421,14.5647916 1.432125,11.6541492 1.432125,8.06479165 C1.432125,4.47543477 4.34269421,1.56479165 7.93196118,1.56479165 C10.028773,1.56380459 11.9965274,2.57724909 13.2134044,4.28487255 L13.2134044,3.18979228 C13.2061243,2.96738681 13.3206179,2.75868794 13.5121,2.64533029 C13.7035821,2.53197264 13.9416196,2.53197264 14.1331017,2.64533029 C14.3245838,2.75868794 14.4390775,2.96738681 14.4317974,3.18979228 L14.4317974,5.62729215 C14.4317974,5.96393076 14.1589047,6.23683027 13.8222746,6.23683027 Z" id="路径" fill-opacity="0.4" fill="#000000" mask="url(#mask-2)"></path>
                            </g>
                        </g>
                    </g>
                </g>
            </g>
        </g>
    </g>
</svg>