<?xml version="1.0" encoding="UTF-8"?>
<svg width="22px" height="22px" viewBox="0 0 22 22" version="1.1" xmlns="http://www.w3.org/2000/svg" xmlns:xlink="http://www.w3.org/1999/xlink">
    <title>编组</title>
    <g id="页面-1" stroke="none" stroke-width="1" fill="none" fill-rule="evenodd">
        <g id="编组">
            <rect id="矩形" x="0" y="0" width="22" height="22"></rect>
            <path d="M6.54975,15.2 C6.58475,15.2 6.61975,15.1965 6.65475,15.19125 L9.59825,14.675 C9.63325,14.668 9.6665,14.65225 9.691,14.626 L17.10925,7.20775 C17.1775,7.1395 17.1775,7.02925 17.10925,6.961 L14.20075,4.05075 C14.1675,4.0175 14.12375,4 14.0765,4 C14.02925,4 13.9855,4.0175 13.95225,4.05075 L6.534,11.469 C6.50775,11.49525 6.492,11.52675 6.485,11.56175 L5.96875,14.50525 C5.9355,14.6995 5.995,14.8885 6.13325,15.02675 C6.24875,15.13875 6.394,15.2 6.54975,15.2 L6.54975,15.2 Z M7.72925,12.148 L14.0765,5.8025 L15.35925,7.08525 L9.012,13.43075 L7.45625,13.7055 L7.72925,12.148 L7.72925,12.148 Z M17.44,16.67 L4.56,16.67 C4.25025,16.67 4,16.92025 4,17.23 L4,17.86 C4,17.937 4.063,18 4.14,18 L17.86,18 C17.937,18 18,17.937 18,17.86 L18,17.23 C18,16.92025 17.74975,16.67 17.44,16.67 Z" id="形状" fill="#000000"></path>
        </g>
    </g>
</svg>