<?xml version="1.0" encoding="UTF-8"?>
<svg width="14px" height="14px" viewBox="0 0 14 14" version="1.1" xmlns="http://www.w3.org/2000/svg" xmlns:xlink="http://www.w3.org/1999/xlink">
    <title>编组</title>
    <g id="页面-1" stroke="none" stroke-width="1" fill="none" fill-rule="evenodd">
        <g id="编组" fill-rule="nonzero">
            <rect id="矩形" fill="#000000" opacity="0" x="0" y="0" width="14" height="14"></rect>
            <path d="M3.46609866,2.05 L4.64575785,2.05 C5.10661138,2.05 5.3401839,2.05 5.5415124,2.12230769 C5.7168884,2.18384615 5.87653561,2.28538462 6.00551169,2.41692308 C6.15493518,2.56769231 6.2508808,2.77615385 6.43962627,3.18769231 L6.47501605,3.26461538 L9.67110602,3.26461538 C10.0276252,3.26461538 10.2722079,3.26948718 10.404854,3.27923077 C10.6323972,3.29615385 10.8206184,3.33820513 10.9695176,3.40538462 C11.3207939,3.56435897 11.5771731,3.81512821 11.7386554,4.15769231 C11.807862,4.30384615 11.8511162,4.48820513 11.8684179,4.71076923 C11.8762823,4.81179487 11.8810009,4.97846154 11.8825738,5.21076923 C12.0894074,5.32615385 12.2592783,5.49923077 12.3685934,5.70769231 C12.503861,5.96538462 12.5022881,6.31076923 12.4991423,6.98769231 L12.4818407,10.1376923 C12.4779085,10.8069231 12.4739763,11.15 12.3379222,11.4046154 C12.220222,11.6242467 12.0362533,11.8031155 11.8110078,11.9169231 C11.5499099,12.0492308 11.1999443,12.05 10.515742,12.05 L3.46609866,12.05 C2.77796413,12.05 2.42563925,12.0492308 2.16375491,11.9161538 C1.93804302,11.8015365 1.75402198,11.6215421 1.63684047,11.4007692 C1.50157288,11.1446154 1.5,10.8007692 1.5,10.1269231 L1.5,3.97307692 C1.5,3.3 1.50157288,2.95615385 1.63684047,2.7 C1.75402198,2.47922709 1.93804302,2.29923276 2.16375491,2.18461538 C2.42563925,2.05153846 2.77717769,2.05 3.46609866,2.05 L3.46609866,2.05 Z M11.0945615,5.05769231 C11.0924643,4.9274359 11.0890564,4.83128205 11.0843377,4.76923077 C11.0738519,4.63846154 11.0539287,4.54230769 11.0245683,4.48076923 C10.9438272,4.30897436 10.8153754,4.18333333 10.639213,4.10384615 C10.5762978,4.07512821 10.4782551,4.05589744 10.3450846,4.04615385 C10.2318374,4.03794872 10.0071778,4.03384615 9.67110602,4.03384615 L6.82655449,4.03384615 L7.03338806,4.48538462 C7.1277608,4.69076923 7.17494717,4.79538462 7.24965892,4.87 C7.31473864,4.93593296 7.39436028,4.98644931 7.482445,5.01769231 C7.58310925,5.05384615 7.70028873,5.05384615 7.93071549,5.05384615 L10.5338301,5.05384615 C10.7508874,5.05384615 10.9349142,5.05384615 11.0945615,5.05846154 L11.0945615,5.05769231 L11.0945615,5.05769231 Z M3.46609866,2.81923077 C2.90248371,2.81923077 2.58921866,2.83538462 2.5263035,2.86769231 C2.44241662,2.90974359 2.37871503,2.97179487 2.33519871,3.05384615 C2.30269255,3.11538462 2.28643946,3.42179487 2.28643946,3.97307692 L2.28643946,10.1269231 C2.28643946,10.6787179 2.30269255,10.9853846 2.33519871,11.0469231 C2.37871503,11.1289744 2.44241662,11.1910256 2.5263035,11.2330769 C2.58921866,11.2648718 2.90248371,11.2807692 3.46609866,11.2807692 L10.515742,11.2807692 C11.0767355,11.2807692 11.3884277,11.2651282 11.4508185,11.2338462 C11.5347054,11.1912821 11.5981449,11.1294872 11.6411369,11.0484615 C11.6741673,10.9869231 11.6922554,10.6817949 11.6954012,10.1330769 L11.7127029,6.98307692 C11.7158486,6.42923077 11.7011684,6.12128205 11.6686623,6.05923077 C11.6256702,5.97666667 11.5619686,5.91410256 11.4775575,5.87153846 C11.4146423,5.83923077 11.1000665,5.82307692 10.5338301,5.82307692 L7.93071549,5.82307692 C7.60722673,5.82307692 7.36867342,5.79564103 7.21505558,5.74076923 C7.01162991,5.66897436 6.83494317,5.55717949 6.68499538,5.40538462 C6.57069951,5.29 6.44749066,5.08794872 6.31536883,4.79923077 L5.72160704,3.50230769 C5.57061066,3.17153846 5.47702437,2.98794872 5.44084815,2.95153846 C5.39366178,2.90333333 5.33782458,2.86794872 5.27333655,2.84538462 C5.22510159,2.82794872 5.0153844,2.81923077 4.64418497,2.81923077 L3.46452578,2.81923077 L3.46609866,2.81923077 Z" id="形状" fill-opacity="0.85" fill="#000000"></path>
            <path d="M5.57462262,2.0279482 C5.76422235,2.09447769 5.93703288,2.20425071 6.07653864,2.34653009 C6.21921235,2.49048875 6.28906771,2.61953923 6.530473,3.14589672 L6.53908485,3.16461539 L9.67110602,3.16461538 C10.0299804,3.16461538 10.2763642,3.16952306 10.4122709,3.17950619 C10.6506737,3.19723694 10.8500646,3.2417837 11.0107481,3.31428002 C11.3835625,3.48300175 11.6574467,3.75089285 11.8290349,4.11489584 C11.9039444,4.27309306 11.9499334,4.46910865 11.9681163,4.70300816 C11.9755442,4.79842743 11.9801756,4.94827136 11.982081,5.15422595 C12.1834941,5.27773203 12.3481602,5.45339967 12.4571361,5.66121454 C12.586513,5.90768462 12.6031859,6.11780102 12.5991408,6.98824156 L12.5818389,10.1382799 C12.576845,10.9882116 12.5567227,11.2073309 12.4260635,11.4518502 C12.2986344,11.6896357 12.0996086,11.8831443 11.8562092,12.0061242 C11.607105,12.1323542 11.3902038,12.15 10.515742,12.15 L3.46609866,12.15 C2.58643748,12.15 2.36827514,12.1322514 2.11847776,12.0053165 C1.87446655,11.8814067 1.67538116,11.6866776 1.54841272,11.4474654 C1.41863085,11.2016998 1.4,10.9839535 1.4,10.1269231 L1.4,3.97307692 C1.4,3.11681936 1.4186418,2.89904871 1.54851165,2.65311696 C1.67538116,2.41409161 1.87446655,2.21936257 2.11845313,2.09546524 C2.3687306,1.96828636 2.59085793,1.95 3.46609866,1.95 L4.64575785,1.95 C5.23734947,1.95 5.38368464,1.95936944 5.57462262,2.0279482 Z M3.46609866,2.15 C2.63064694,2.15 2.41819907,2.16748951 2.20903205,2.27377805 C2.00161949,2.37910295 1.8326628,2.54436257 1.72526821,2.74669619 C1.61775555,2.95029101 1.6,3.15770861 1.6,3.97307692 L1.6,10.1269231 C1.6,10.9430482 1.61774674,11.1504615 1.72516929,11.3538862 C1.8326628,11.5564067 2.00161949,11.7216663 2.20905669,11.8270037 C2.41764641,11.9329989 2.62662115,11.95 3.46609866,11.95 L10.515742,11.95 C11.3501951,11.95 11.5578372,11.9331075 11.7659113,11.8276689 C11.972898,11.7230868 12.1418096,11.5588576 12.2497243,11.3574867 C12.3579343,11.1549794 12.3770871,10.9464168 12.3818422,10.1371431 L12.3991434,6.9872276 C12.4029935,6.15873584 12.3870685,5.95804507 12.2800314,5.75413332 C12.1800326,5.56343785 12.0242695,5.404324 11.8338557,5.29809931 C11.8024069,5.28055522 11.7828199,5.24745687 11.7825761,5.21144628 C11.7810181,4.98133841 11.7763542,4.81660524 11.7687187,4.71851964 C11.752299,4.50730161 11.7117797,4.33459925 11.6482016,4.20033158 C11.4968996,3.87936356 11.2580252,3.6457162 10.9283921,3.49653667 C10.7911722,3.43462656 10.6141207,3.39507076 10.3975282,3.37896207 C10.2680517,3.3694513 10.0252701,3.36461538 9.67110602,3.36461538 L6.47501605,3.36461538 C6.43596703,3.36461538 6.40049008,3.34188573 6.38416931,3.30641098 L6.34873014,3.22938035 C6.11896207,2.72839668 6.05342943,2.60733199 5.93410896,2.48693487 C5.81570798,2.3661816 5.66910753,2.27305779 5.50771105,2.21642182 C5.34735652,2.15883004 5.2094458,2.15 4.64575785,2.15 L3.46609866,2.15 Z M4.64418498,2.71923077 C5.03636669,2.71923077 5.24217078,2.72778605 5.30636284,2.75099572 C5.38532403,2.77862392 5.45432612,2.82235126 5.51178645,2.88105614 C5.5608787,2.93046599 5.65285396,3.11089534 5.81253107,3.46068054 L6.40630002,4.75761924 C6.53395685,5.03658009 6.65171178,5.22968745 6.75613757,5.3351081 C6.8954156,5.47610177 7.05914655,5.57969914 7.24869372,5.64659665 C7.38924697,5.69680181 7.61770731,5.72307692 7.93071549,5.72307692 L10.5338301,5.72307692 C11.1317165,5.72307692 11.4379868,5.73880427 11.522582,5.78224795 C11.6256307,5.83421002 11.7046455,5.91181384 11.7572436,6.01282658 C11.8017378,6.09776199 11.8160301,6.39757224 11.8127014,6.98362617 L11.7953996,10.1336502 C11.7920706,10.714316 11.7744514,11.0115348 11.7294723,11.0953321 C11.6767544,11.1946877 11.5982098,11.2711962 11.4956391,11.3232392 C11.411266,11.3655429 11.1078378,11.3807692 10.515742,11.3807692 L3.46609866,11.3807692 C2.8713162,11.3807692 2.56620459,11.3652856 2.48149022,11.3224736 C2.37907594,11.2711348 2.30013495,11.194239 2.24677657,11.0936299 C2.20225856,11.0093514 2.18643946,10.7108732 2.18643946,10.1269231 L2.18643946,3.97307692 C2.18643946,3.3896671 2.20225978,3.09141551 2.2468544,3.0069923 C2.30013495,2.90653028 2.37907594,2.82963441 2.48062313,2.77873555 C2.56578258,2.73500515 2.87039356,2.71923077 3.46446612,2.71923077 L4.64418498,2.71923077 Z M2.57111678,2.95708901 C2.50575731,2.98985277 2.4572951,3.03705946 2.42362085,3.10055295 C2.40312531,3.13935372 2.38643946,3.45392264 2.38643946,3.97307692 L2.38643946,10.1269231 C2.38643946,10.6465627 2.40312653,10.9614178 2.42354302,11.0000692 C2.4572951,11.0637098 2.50575731,11.1109165 2.57140723,11.1438264 C2.61223272,11.164458 2.93365122,11.1807692 3.46609866,11.1807692 L10.515742,11.1807692 C11.0456332,11.1807692 11.3655894,11.1647135 11.4055701,11.1446689 C11.471201,11.1113679 11.5195353,11.0642866 11.5530267,11.0011689 C11.5738833,10.9623114 11.5924402,10.6492738 11.5954027,10.1325277 L11.6127045,6.98250895 C11.6156672,6.4608893 11.600599,6.14480211 11.5799664,6.10541567 C11.546695,6.04151949 11.4983065,5.99399511 11.4318771,5.96049522 C11.3912978,5.93965727 11.0684165,5.92307692 10.5338301,5.92307692 L7.93071549,5.92307692 C7.59674614,5.92307692 7.34809987,5.89448024 7.18177457,5.83506862 C6.96411326,5.75824957 6.77447075,5.6382572 6.61395031,5.47575932 C6.48968724,5.35031255 6.36102448,5.13931734 6.2244448,4.84085792 L5.63063751,3.54383534 C5.48836737,3.23218159 5.39317003,3.04543144 5.36938637,3.02148998 C5.33299744,2.9843154 5.29032513,2.95727352 5.23934154,2.93942896 C5.2080324,2.92811139 4.99440211,2.91923077 4.64418497,2.91923077 L3.46609866,2.91923077 C2.93399864,2.91923077 2.61257436,2.93580535 2.57111678,2.95708901 Z M10.3523818,3.94642044 C10.4963605,3.95695484 10.6048452,3.97823375 10.6803416,4.0126955 C10.8781237,4.10193781 11.0241412,4.24476025 11.1148223,4.43770848 C11.1504942,4.51247573 11.1726415,4.61936375 11.1840499,4.76164825 C11.1889534,4.82613057 11.1924218,4.92399267 11.1945615,5.05608248 C11.1945615,5.11482211 11.1480087,5.16004847 11.0916717,5.15841978 C10.9584683,5.15456888 10.8418461,5.15384615 10.5338301,5.15384615 L7.93071549,5.15384615 C7.62773173,5.15384615 7.55226031,5.14902065 7.44901625,5.11193942 C7.34673315,5.07566037 7.25420049,5.01695255 7.17899388,4.94075629 C7.14594856,4.9077536 7.11732194,4.87018423 7.08908181,4.82368222 C7.05168066,4.76209511 7.02804614,4.71326545 6.94247231,4.52702986 L6.73563874,4.0754914 C6.70529814,4.00925484 6.7536996,3.93384615 6.82655449,3.93384615 L9.67110602,3.93384615 C10.0095769,3.93384615 10.235866,3.93797848 10.3523818,3.94642044 Z M7.26002827,4.71986842 C7.28038698,4.75339238 7.29940583,4.77835257 7.3208286,4.79975132 C7.37527679,4.85491337 7.44198741,4.89723826 7.51624635,4.92357818 C7.58857921,4.94955673 7.65566624,4.95384615 7.93071549,4.95384615 L10.5338301,4.95384615 C10.7640698,4.95384615 10.8882042,4.95424789 10.9924307,4.95606545 C10.9904576,4.87882167 10.9878474,4.81917748 10.9846577,4.77722371 C10.9750623,4.65755932 10.9573633,4.57213965 10.9340655,4.52330428 C10.8635132,4.37318846 10.7526272,4.26472886 10.5976888,4.19481724 C10.5477505,4.17202266 10.4601496,4.15484004 10.3378583,4.1458924 C10.2278087,4.13791896 10.0047788,4.13384615 9.67110602,4.13384615 L6.98235283,4.13384617 L7.1242546,4.4436321 C7.20567501,4.62082839 7.22841994,4.66782011 7.26002827,4.71986842 Z" id="形状" fill="#303133"></path>
        </g>
    </g>
</svg>