<?xml version="1.0" encoding="UTF-8"?>
<svg width="14px" height="14px" viewBox="0 0 14 14" version="1.1" xmlns="http://www.w3.org/2000/svg" xmlns:xlink="http://www.w3.org/1999/xlink">
    <title>Icon/Save 2</title>
    <g id="页面-1" stroke="none" stroke-width="1" fill="none" fill-rule="evenodd">
        <g id="Icon/Save" fill="#000000" fill-rule="nonzero">
            <rect id="矩形" opacity="0" x="0" y="0" width="14" height="14"></rect>
            <path d="M6.0564579,2.30334756 C6.56928976,2.56884731 6.98577211,2.99329676 7.2481914,3.51691158 C7.5135623,4.04772473 7.54534957,4.44401267 7.54534957,6.11143092 C7.54534957,6.41817666 7.30118825,6.66684322 7,6.66684322 C6.69881175,6.66684322 6.45465043,6.41817666 6.45465043,6.11143092 C6.45465043,4.66711509 6.42701077,4.32253484 6.27647427,4.02142076 C6.11885668,3.70692098 5.86924025,3.45252951 5.56118697,3.29304492 C5.2653043,3.13906234 4.92712492,3.1108246 3.50926323,3.1108246 L3.29114564,3.1108246 C2.63806856,3.1108246 2.48124516,3.12396232 2.38866096,3.17248728 C2.28619743,3.22553398 2.20257504,3.31058626 2.14985929,3.41534342 C2.10353253,3.50766995 2.09069914,3.66770926 2.09069914,4.33342161 L2.09069914,9.66657839 C2.09069914,10.3325525 2.10348392,10.491892 2.14956975,10.5840804 C2.20257504,10.6894137 2.28619743,10.774466 2.39111329,10.8287903 C2.48124516,10.8760377 2.63806856,10.8891754 3.29114564,10.8891754 L7,10.8891754 C7.30118825,10.8891754 7.54534957,11.137842 7.54534957,11.4445877 C7.54534957,11.7513334 7.30118825,12 7,12 L3.29114564,12 C2.41654423,12 2.20890161,11.982605 1.89441432,11.8177418 C1.58675531,11.6584627 1.3365669,11.4039962 1.1782627,11.0894061 C1.01693908,10.7667155 1,10.5556001 1,9.66657839 L1,4.33342161 C1,3.44326692 1.01693205,3.23211512 1.17892032,2.90928274 C1.3365669,2.59600381 1.58675531,2.34153733 1.891962,2.1835358 C2.20890161,2.01739504 2.41654423,2 3.29114564,2 L3.50926323,2 C5.14675849,2 5.53602455,2.03250344 6.0564579,2.30334756 Z M7.54534957,6.11143092 L7.54534957,11.4445877 C7.54534957,11.7513334 7.30118825,12 7,12 C6.69881175,12 6.45465043,11.7513334 6.45465043,11.4445877 L6.45465043,6.11143092 C6.45465043,5.80468518 6.69881175,5.55601862 7,5.55601862 C7.30118825,5.55601862 7.54534957,5.80468518 7.54534957,6.11143092 Z M12.106441,2.18225825 C12.4147064,2.34185122 12.6651977,2.59696457 12.8213692,2.90985893 C12.983068,3.23211512 13,3.44326692 13,4.33342161 L13,9.66657839 C13,10.5556001 12.9830609,10.7667155 12.8218992,11.089082 C12.665294,11.4028424 12.4140457,11.658048 12.108038,11.8164642 C11.7910506,11.98263 11.583829,12 10.7088544,12 L7,12 C6.69881175,12 6.45465043,11.7513334 6.45465043,11.4445877 C6.45465043,11.137842 6.69881175,10.8891754 7,10.8891754 L10.7088544,10.8891754 C11.3624136,10.8891754 11.5186806,10.8760766 11.611339,10.8275127 C11.714293,10.7742121 11.7979308,10.689257 11.8497726,10.5853915 C11.8965161,10.491892 11.9093009,10.3325525 11.9093009,9.66657839 L11.9093009,4.33342161 C11.9093009,3.66770926 11.8964675,3.50766995 11.8496107,3.41428439 C11.7976037,3.31008762 11.7145034,3.22545397 11.6104656,3.17158833 C11.5191748,3.12390867 11.3629917,3.1108246 10.7088544,3.1108246 L10.4907368,3.1108246 C9.07361779,3.1108246 8.73492769,3.13910498 8.43864411,3.29357659 C8.13108324,3.45280487 7.88087066,3.70746502 7.72377327,4.02092622 C7.57298923,4.32253484 7.54534957,4.66711509 7.54534957,6.11143092 C7.54534957,6.41817666 7.30118825,6.66684322 7,6.66684322 C6.69881175,6.66684322 6.45465043,6.41817666 6.45465043,6.11143092 C6.45465043,4.44401267 6.4864377,4.04772473 6.75205615,3.51641704 C7.01407006,2.99361169 7.4312612,2.5690049 7.94301234,2.30406719 C8.46383488,2.03252458 8.85335416,2 10.4907368,2 L10.7088544,2 C11.5832508,2 11.7907701,2.01738471 12.106441,2.18225825 Z" id="形状结合" fill-opacity="0.85"></path>
        </g>
    </g>
</svg>