<?xml version="1.0" encoding="UTF-8"?>
<svg width="14px" height="14px" viewBox="0 0 14 14" version="1.1" xmlns="http://www.w3.org/2000/svg" xmlns:xlink="http://www.w3.org/1999/xlink">
    <title>Icon/Save</title>
    <g id="页面-1" stroke="none" stroke-width="1" fill="none" fill-rule="evenodd" opacity="0.88">
        <g id="画框-2" transform="translate(-2799, -843)" fill="#000000">
            <g id="编组-4" transform="translate(1800, 279)">
                <g id="编组" transform="translate(295, 208)" fill-rule="nonzero">
                    <g id="General/Button/Icon/Light/Default备份-3" transform="translate(284, 348)">
                        <g transform="translate(408, 0)">
                            <g id="Icon/Save" transform="translate(12, 8)">
                                <rect id="矩形" opacity="0" x="0" y="0" width="14" height="14"></rect>
                                <path d="M1.8,2.5 L4.14,2.5 C5.29767213,2.55300345 6.3597384,3.12976933 7,4.05315208 C7.6402616,3.12976933 8.70232787,2.55300345 9.86,2.5 L12.2,2.5 C12.9179702,2.5 13.5,3.0562959 13.5,3.74252166 L13.5,10.5763908 C13.5,11.2626166 12.9179702,11.8189125 12.2,11.8189125 L9.86,11.8189125 C9.16310406,11.8707489 8.48111306,12.038965 7.845,12.3159211 C7.310931,12.5613596 6.689069,12.5613596 6.155,12.3159211 C5.52128406,12.03254 4.83805106,11.8640175 4.14,11.8189125 L1.8,11.8189125 C1.08202983,11.8189125 0.5,11.2626166 0.5,10.5763908 L0.5,3.74252166 C0.5,3.0562959 1.08202983,2.5 1.8,2.5 Z M4.14,3.43189125 L1.8,3.43189125 C1.62050746,3.43189125 1.475,3.57096522 1.475,3.74252166 L1.475,10.5763908 C1.475,10.7479473 1.62050746,10.8870212 1.8,10.8870212 L4.205,10.8870212 C4.99536013,10.9227357 5.7696532,11.1130364 6.48,11.446156 L6.48,5.23354766 C6.48,5.23354766 6.545,4.98504333 6.415,4.86079116 L6.22,4.55016074 C5.7497855,3.88494229 4.97897023,3.47052921 4.14,3.43189125 Z M12.2,3.43189125 L9.86,3.43189125 C9.02102977,3.47052921 8.2502145,3.88494229 7.78,4.55016074 L7.52,4.86079116 C7.455,4.92291724 7.455,5.23354766 7.455,5.23354766 L7.455,11.446156 C8.18953033,11.1160945 8.9843768,10.9261687 9.795,10.8870212 L12.2,10.8870212 C12.3794925,10.8870212 12.525,10.7479473 12.525,10.5763908 L12.525,3.74252166 C12.525,3.57096522 12.3794925,3.43189125 12.2,3.43189125 Z M5.115,7.96709532 C5.33039105,7.96709532 5.505,8.13398409 5.505,8.33985182 C5.505,8.54571955 5.33039105,8.71260832 5.115,8.71260832 L3.425,8.71260832 C3.20960895,8.71260832 3.035,8.54571955 3.035,8.33985182 C3.035,8.13398409 3.20960895,7.96709532 3.425,7.96709532 L5.115,7.96709532 Z M8.885,7.96709532 L10.575,7.96709532 C10.7903911,7.96709532 10.965,8.13398409 10.965,8.33985182 C10.965,8.54571955 10.7903911,8.71260832 10.575,8.71260832 L8.885,8.71260832 C8.66960895,8.71260832 8.495,8.54571955 8.495,8.33985182 C8.495,8.13398409 8.66960895,7.96709532 8.885,7.96709532 Z M5.115,5.66843024 C5.33039105,5.66843024 5.505,5.83531901 5.505,6.04118674 C5.505,6.24705447 5.33039105,6.41394324 5.115,6.41394324 L3.425,6.41394324 C3.20960895,6.41394324 3.035,6.24705447 3.035,6.04118674 C3.035,5.83531901 3.20960895,5.66843024 3.425,5.66843024 L5.115,5.66843024 Z M8.885,5.66843024 L10.575,5.66843024 C10.7903911,5.66843024 10.965,5.83531901 10.965,6.04118674 C10.965,6.24705447 10.7903911,6.41394324 10.575,6.41394324 L8.885,6.41394324 C8.78156557,6.41394324 8.68236754,6.37467079 8.60922836,6.30476539 C8.53608917,6.23485998 8.495,6.14004791 8.495,6.04118674 C8.495,5.94232557 8.53608917,5.8475135 8.60922836,5.77760809 C8.68236754,5.70770269 8.78156557,5.66843024 8.885,5.66843024 Z" id="形状结合" fill-opacity="0.85"></path>
                            </g>
                        </g>
                    </g>
                </g>
            </g>
        </g>
    </g>
</svg>