<?xml version="1.0" encoding="UTF-8"?>
<svg width="18px" height="18px" viewBox="0 0 18 18" version="1.1" xmlns="http://www.w3.org/2000/svg" xmlns:xlink="http://www.w3.org/1999/xlink">
    <title>编组</title>
    <g id="页面-1" stroke="none" stroke-width="1" fill="none" fill-rule="evenodd">
        <g id="画框-2" transform="translate(-1824, -440)">
            <g id="编组-4" transform="translate(1800, 279)">
                <g id="编组-10" transform="translate(0, 50)">
                    <g transform="translate(12, 102)">
                        <g id="编组" transform="translate(12, 9)">
                            <rect id="矩形-12" x="0" y="0" width="18" height="18"></rect>
                            <path d="M11.5694828,3.98944688 C12.6399927,5.0495072 13.2517436,6.49014885 13.2737968,8.00064596 C13.2848128,8.76218101 13.1453588,9.51848704 12.8632832,10.2266357 C12.6643489,10.7238983 12.3982135,11.1896109 12.0716286,11.6100557 L15.9691403,15.530072 C16.2286743,15.7911046 16.2274595,16.2131073 15.9664268,16.4726414 C15.7053942,16.7321755 15.2833915,16.7309607 15.0238574,16.469928 L11.139832,12.5634759 C10.7225836,12.9029538 10.2589745,13.1808859 9.76264137,13.3896576 C9.06352892,13.6843634 8.31147256,13.8363012 7.55274268,13.8363012 C6.79308508,13.8363012 6.04101657,13.6844239 5.34223779,13.3898585 C4.64282771,13.0956667 4.00878658,12.66453 3.47463382,12.1203762 C2.94327357,11.5778206 2.52417205,10.9341645 2.2407497,10.225711 C1.95904323,9.51848704 1.81958931,8.76218101 1.83060527,8.00064596 C1.8526585,6.49014885 2.46440939,5.0495072 3.53464829,3.98971539 C4.60500545,2.92859222 6.04861535,2.3335 7.55274268,2.3335 C9.05594886,2.3335 10.499512,2.92870661 11.5694828,3.98944688 Z M4.4728584,4.93663177 C3.65067951,5.75078512 3.18042694,6.85820555 3.16346452,8.02001603 C3.15498745,8.60603749 3.26232461,9.18816342 3.4787531,9.73150905 C3.69659959,10.276045 4.01883428,10.770933 4.42644471,11.1871322 C4.83647189,11.6048359 5.32291306,11.9356072 5.85955212,12.1613331 C6.39483717,12.3869787 6.97084494,12.5033012 7.55274268,12.5033012 C8.13367634,12.5033012 8.7096747,12.3869324 9.24532703,12.1611322 C9.77853829,11.9368484 10.2625745,11.6084734 10.6705034,11.194387 C10.6773805,11.1855367 10.6852718,11.1772811 10.693416,11.1691836 C10.6958683,11.1667454 10.6983349,11.1643301 10.7010448,11.162328 C11.0983002,10.7512963 11.4121129,10.2652705 11.6252798,9.73243372 C11.8420701,9.18818188 11.9494073,8.60607698 11.9409369,8.0200756 C11.9239671,6.85818654 11.4537155,5.75077813 10.6312727,4.93636326 C9.81049093,4.12266243 8.70415363,3.6665 7.55274268,3.6665 C6.40037257,3.6665 5.29399966,4.12257467 4.4728584,4.93663177 Z" id="形状" fill-opacity="0.85" fill="#000000" fill-rule="nonzero"></path>
                        </g>
                    </g>
                </g>
            </g>
        </g>
    </g>
</svg>