<?xml version="1.0" encoding="UTF-8"?>
<svg width="16px" height="16px" viewBox="0 0 16 16" version="1.1" xmlns="http://www.w3.org/2000/svg" xmlns:xlink="http://www.w3.org/1999/xlink">
    <title>路径</title>
    <g id="页面-1" stroke="none" stroke-width="1" fill="none" fill-rule="evenodd">
        <g id="画框-2" transform="translate(-1299, -1806)" fill="#FFFFFF">
            <g id="编组-6" transform="translate(236, 1318)">
                <g id="编组" transform="translate(170, 208)">
                    <g id="编组-2" transform="translate(170, 0)">
                        <g transform="translate(0, 176)">
                            <g id="路径" transform="translate(716, 96)">
                                <path d="M22.0605913,8.65773776 C22.5377501,8.65773776 22.9393637,9.03727199 22.9951913,9.54080085 L23.0017796,9.65780921 L23.0017796,16.0872685 C23.0017796,17.9454012 21.8780008,19.5445154 20.3438639,19.6525231 L20.1782147,19.6585236 L10.2157366,19.6585236 L12.3729402,21.9516874 C12.7232604,22.3251904 12.7404559,22.9235444 12.4122358,23.3190636 C12.0840158,23.7145827 11.5231687,23.771352 11.1305716,23.4487943 L11.0420999,23.3657884 L7.27734675,19.3655026 C6.90992385,18.9749749 6.90992385,18.3419294 7.27734675,17.9514016 L11.0420999,13.9511159 C11.3936115,13.5788787 11.9567351,13.5606074 12.3289665,13.9093618 C12.7011979,14.2581162 12.7546246,14.8540512 12.4510588,15.2712102 L12.3729402,15.3652169 L10.2157366,17.6583807 L20.1782147,17.6583807 C20.6102201,17.6583807 21.0591669,17.0813395 21.1137559,16.2552805 L21.119403,16.0872685 L21.119403,9.65780921 C21.119403,9.105485 21.5407874,8.65773776 22.0605913,8.65773776 Z"></path>
                            </g>
                        </g>
                    </g>
                </g>
            </g>
        </g>
    </g>
</svg>