<?xml version="1.0" encoding="UTF-8"?>
<svg width="14px" height="14px" viewBox="0 0 14 14" version="1.1" xmlns="http://www.w3.org/2000/svg" xmlns:xlink="http://www.w3.org/1999/xlink">
    <title>编组</title>
    <g id="页面-1" stroke="none" stroke-width="1" fill="none" fill-rule="evenodd" fill-opacity="0.85">
        <g id="画框-2" transform="translate(-2014, -354)" fill="#000000">
            <g id="编组" transform="translate(1800, 279)" fill-rule="nonzero">
                <g transform="translate(0, 50)" id="编组-2">
                    <g id="编组" transform="translate(205, 16)">
                        <g transform="translate(9, 9)" id="形状">
                            <g transform="translate(4, 0)">
                                <path d="M0,11.75 L0,12.5 L1.5,12.5 L1.5,11.75 L0,11.75 Z M1.5,0.75 L1.5,0 L0,0 L0,0.75 L1.5,0.75 Z M0.75,11.75 L1.5,11.75 L1.5,0.75 L0,0.75 L0,11.75 L0.75,11.75 Z"></path>
                            </g>
                            <path d="M13.16,4.424 L12.32,4.424 L12.32,9.576 L14,9.576 L14,4.424 L13.16,4.424 Z M9.576,13.16 L9.576,12.32 L4.424,12.32 L4.424,14 L9.576,14 L9.576,13.16 Z M0.84,9.576 L1.68,9.576 L1.68,4.424 L0,4.424 L0,9.576 L0.84,9.576 Z M4.424,0.84 L4.424,1.68 L9.576,1.68 L9.576,0 L4.424,0 L4.424,0.84 Z M4.424,13.16 L4.424,12.32 C3.78336,12.32 3.35216,12.32 3.02064,12.292 C2.6992,12.26624 2.54576,12.2192 2.44496,12.16768 L2.06304,12.91584 L1.68224,13.664 C2.05968,13.85664 2.4584,13.9328 2.884,13.9664 C3.29952,14 3.81024,14 4.424,14 L4.424,13.16 Z M0.84,9.576 L0,9.576 C0,10.18976 0,10.69936 0.0336,11.116 C0.0672,11.5416 0.14336,11.94032 0.336,12.31776 L1.08416,11.93696 L1.83232,11.55616 C1.7808,11.45424 1.73376,11.3008 1.708,10.97936 C1.68112,10.64784 1.68,10.21776 1.68,9.576 L0.84,9.576 Z M2.06304,12.91584 L2.44384,12.16768 C2.18064,12.033504 1.96672,11.819472 1.83232,11.55616 L1.08416,11.93696 L0.336,12.31776 C0.63168,12.897472 1.10208,13.368656 1.68224,13.664 L2.06304,12.91584 Z M13.16,9.576 L12.32,9.576 C12.32,10.21664 12.32,10.64784 12.292,10.97824 C12.26624,11.3008 12.2192,11.45424 12.16768,11.55616 L12.91584,11.93696 L13.664,12.31776 C13.85664,11.94032 13.9328,11.5416 13.9664,11.116 C14,10.69936 14,10.18976 14,9.576 L13.16,9.576 Z M9.576,13.16 L9.576,14 C10.18976,14 10.69936,14 11.116,13.9664 C11.5416,13.9328 11.94032,13.85664 12.31776,13.664 L11.93696,12.91584 L11.55616,12.16768 C11.45424,12.2192 11.3008,12.26624 10.97936,12.292 C10.64784,12.31888 10.21776,12.32 9.576,12.32 L9.576,13.16 Z M12.91584,11.93696 L12.16768,11.55616 C12.03328,11.819472 11.81936,12.033504 11.55616,12.16768 L11.93696,12.91584 L12.31776,13.664 C12.8968,13.368992 13.36832,12.897024 13.664,12.31776 L12.91584,11.93696 Z M13.16,4.424 L14,4.424 C14,3.81024 14,3.29952 13.9664,2.884 C13.9328,2.4584 13.85664,2.05968 13.664,1.68224 L12.91584,2.06304 L12.16768,2.44384 C12.2192,2.54576 12.26624,2.6992 12.292,3.02064 C12.31888,3.35216 12.32,3.78224 12.32,4.424 L13.16,4.424 Z M9.576,0.84 L9.576,1.68 C10.21664,1.68 10.64784,1.68 10.97824,1.708 C11.3008,1.73376 11.45424,1.7808 11.55616,1.83232 L11.93696,1.08416 L12.31776,0.336 C11.94032,0.14336 11.5416,0.0672 11.116,0.0336 C10.69936,0 10.18976,0 9.576,0 L9.576,0.84 Z M12.91584,2.06304 L13.664,1.68224 C13.36944,1.102976 12.89904,0.63168 12.32,0.336 L11.93808,1.08416 L11.55728,1.83232 C11.82048,1.96672 12.0344,2.18064 12.1688,2.44496 L12.91584,2.06304 Z M0.84,4.424 L1.68,4.424 C1.68,3.78336 1.68,3.35216 1.708,3.02064 C1.73376,2.6992 1.7808,2.54576 1.83232,2.44496 L1.08416,2.06304 L0.336,1.68224 C0.14336,2.05968 0.0672,2.4584 0.0336,2.884 C0,3.29952 0,3.81024 0,4.424 L0.84,4.424 Z M4.424,0.84 L4.424,0 C3.81024,0 3.29952,0 2.884,0.0336 C2.4584,0.0672 2.05968,0.14336 1.68224,0.336 L2.06304,1.08416 L2.44384,1.83232 C2.54576,1.7808 2.6992,1.73376 3.02064,1.708 C3.35216,1.68112 3.78224,1.68 4.424,1.68 L4.424,0.84 Z M1.08416,2.06304 L1.83232,2.44384 C1.96672,2.180416 2.18176,1.966272 2.44496,1.83232 L2.06304,1.08416 L1.68224,0.336 C1.10208,0.631344 0.63168,1.102528 0.336,1.68224 L1.08416,2.06304 Z"></path>
                        </g>
                    </g>
                </g>
            </g>
        </g>
    </g>
</svg>