<?xml version="1.0" encoding="UTF-8"?>
<svg width="12px" height="12px" viewBox="0 0 12 12" version="1.1" xmlns="http://www.w3.org/2000/svg" xmlns:xlink="http://www.w3.org/1999/xlink">
    <title>矩形 5</title>
    <g id="页面-1" stroke="none" stroke-width="1" fill="none" fill-rule="evenodd">
        <g id="画框" transform="translate(-1438, -2221)" fill="#FFFFFF">
            <g id="编组" transform="translate(247, 1378)">
                <g transform="translate(465, 757)" id="编组-2">
                    <g id="矩形-5" transform="translate(12, 76)">
                        <g transform="translate(704, 0)">
                            <path d="M13.2,10 L18.8,10 C19.920105,10 20.4801575,10 20.907981,10.217987 C21.2843052,10.4097337 21.5902663,10.7156948 21.782013,11.092019 C22,11.5198425 22,12.079895 22,13.2 L22,18.8 C22,19.920105 22,20.4801575 21.782013,20.907981 C21.5902663,21.2843052 21.2843052,21.5902663 20.907981,21.782013 C20.4801575,22 19.920105,22 18.8,22 L13.2,22 C12.079895,22 11.5198425,22 11.092019,21.782013 C10.7156948,21.5902663 10.4097337,21.2843052 10.217987,20.907981 C10,20.4801575 10,19.920105 10,18.8 L10,13.2 C10,12.079895 10,11.5198425 10.217987,11.092019 C10.4097337,10.7156948 10.7156948,10.4097337 11.092019,10.217987 C11.5198425,10 12.079895,10 13.2,10 Z"></path>
                        </g>
                    </g>
                </g>
            </g>
        </g>
    </g>
</svg>