<?xml version="1.0" encoding="UTF-8"?>
<svg width="22px" height="22px" viewBox="0 0 22 22" version="1.1" xmlns="http://www.w3.org/2000/svg" xmlns:xlink="http://www.w3.org/1999/xlink">
    <title>编组</title>
    <g id="页面-1" stroke="none" stroke-width="1" fill="none" fill-rule="evenodd">
        <g id="编组">
            <rect id="矩形" x="0" y="0" width="22" height="22"></rect>
            <path d="M8.11746384,8.91954949 L9.00846384,9.69454949 L6.71821494,10.3872118 C6.53933651,10.4411568 6.34421288,10.6286503 6.26276966,10.8432199 C6.23468651,10.9172074 6.2254259,10.9791179 6.22858202,11.0208155 L8.23763595,12.7083478 L8.29764796,12.7587557 L9.06535597,13.4033051 L11.0058372,15.0337063 C11.0475495,15.0295461 11.1070381,15.0095957 11.1751419,14.9689535 C11.3725626,14.8511389 11.5232045,14.6259695 11.5447944,14.4407862 L11.8124638,12.1345495 L12.7264638,12.9295495 L12.5380873,14.5564113 C12.479788,15.0564643 12.1474269,15.5532552 11.6875963,15.8276679 C11.2277657,16.1020807 10.7250135,16.1036597 10.4010851,15.8317085 L8.42207209,14.1689329 L4.70022829,18.6203118 L3.87046384,17.9279876 L7.59446019,13.4740664 L5.54714789,11.7543985 C5.22379581,11.4827236 5.13813434,10.9881834 5.32785131,10.488357 C5.51756828,9.98853049 5.94788769,9.57503821 6.42948523,9.42980114 L8.11746384,8.91954949 Z M13.2206286,3.74755382 L13.2761249,3.75819234 C13.4155467,3.78920067 13.5406112,3.85028079 13.6450039,3.93787664 L16.7106654,6.51378592 C16.9832775,6.74294117 17.0899791,7.13406164 16.9959122,7.55937321 C16.9018452,7.98468478 16.6190906,8.38956482 16.2400208,8.64174416 L15.0727026,9.41836016 L13.4724638,11.3245495 L12.7184638,10.6685495 L14.3063788,8.77590562 L14.3988956,8.665551 L14.5187908,8.5857848 L15.6861327,7.80915305 C15.852546,7.69844523 15.9819778,7.51311013 16.0195084,7.34342013 C16.0285817,7.30239636 16.0308467,7.26985421 16.0292672,7.24738824 L13.0380538,4.73403345 C13.0033168,4.73748517 12.9391801,4.75748274 12.8609762,4.80589446 C12.7260179,4.88943967 12.6077339,5.02693638 12.5440222,5.17515176 L11.9934881,6.45530738 L11.9354871,6.59017701 L11.841168,6.70268414 L10.2874638,8.55354949 L9.53346384,7.89754949 L11.0748364,6.06023893 L11.6253705,4.78008331 C11.7699035,4.44384938 12.0250352,4.14727713 12.3346233,3.95562826 C12.6248621,3.77595744 12.9406666,3.70230679 13.2206286,3.74755382 Z M5.92552522,5.2222397 L17.0292144,14.8831742 C17.2375414,15.0644322 17.2594851,15.3802533 17.078227,15.5885803 C16.8969689,15.7969072 16.5811479,15.8188509 16.3728209,15.6375928 L5.26913171,5.97665839 C5.06080474,5.79540033 5.03886106,5.47957926 5.22011912,5.27125229 C5.40137718,5.06292532 5.71719825,5.04098164 5.92552522,5.2222397 Z M8.15113835,8.88132252 L9.04313835,9.65732252 L9.11143823,9.71674036 L9.02477528,9.74291069 L6.73265142,10.4350823 C6.56517981,10.4855873 6.38395632,10.6648421 6.30951558,10.860963 C6.28960466,10.9134201 6.27925226,10.9611868 6.27821425,10.9972067 L8.26979474,12.6700619 L8.32979805,12.7204625 L9.09752017,13.3650237 L11.0204933,14.9807145 C11.0558774,14.9734024 11.1012234,14.9548392 11.1495192,14.9260178 C11.3298869,14.8183798 11.4749151,14.608393 11.495127,14.4350284 L11.7626537,12.1272878 L11.7735752,12.0330766 L11.8451351,12.0953197 L12.7591351,12.8903197 L12.779016,12.9076122 L12.7759903,12.9337871 L12.5877509,14.5622014 C12.5276171,15.077989 12.1861701,15.588361 11.713219,15.8706037 C11.2363475,16.1551859 10.7105924,16.1568371 10.3689209,15.8699899 L8.42828146,14.2394559 L4.73858692,18.6523838 L4.70654788,18.690703 L4.66819576,18.6587034 L3.83843132,17.9663792 L3.8,17.9343136 L3.83210533,17.8959154 L7.52410192,13.4802661 L5.51498418,11.7926803 C5.17393667,11.506138 5.08435557,10.988969 5.28110539,10.4706138 C5.47623605,9.95652449 5.91831525,9.53173228 6.41501115,9.38194197 L8.10384696,8.87118634 L8.1302932,8.86318818 L8.15113835,8.88132252 Z M6.44392172,9.47767168 C5.97746013,9.61834414 5.55890051,10.0205365 5.37459723,10.5061001 C5.19191312,10.9873979 5.27365494,11.4593092 5.57930668,11.7161126 L7.62661898,13.4357804 L7.66481848,13.4678666 L7.6328187,13.5061385 L3.9409277,17.9216616 L4.69390871,18.5499206 L8.38371347,14.1368608 L8.41586273,14.0984098 L8.45423629,14.1306515 L10.4332344,15.7934146 C10.7394346,16.0504823 11.2191838,16.0489755 11.6619736,15.7847322 C12.1086837,15.5181494 12.4319588,15.0349395 12.4884181,14.5506697 L12.673626,12.9484788 L11.8510669,12.2330144 L11.594458,14.4465763 C11.5705045,14.652033 11.4069503,14.8888439 11.2007646,15.0118892 C11.1313586,15.0533086 11.0643417,15.0781194 11.0107994,15.0834595 L10.9898172,15.0855521 L10.973673,15.0719877 L9.03320588,13.4415983 L8.26548917,12.7970416 L8.20547716,12.7466337 L6.19642323,11.0591015 L6.18031262,11.0455691 L6.17872464,11.0245893 C6.17467228,10.9710509 6.1874005,10.9008872 6.21602374,10.8254767 C6.30112057,10.6012814 6.50547882,10.3991432 6.70376069,10.3393466 L8.90920385,9.67335068 L8.10634888,8.97490284 L6.44392172,9.47767168 Z M5.9583449,5.18451877 L17.0620341,14.8454532 C17.2911937,15.0448371 17.3153318,15.3922403 17.1159479,15.6213999 C16.9165641,15.8505596 16.5691609,15.8746976 16.3400012,15.6753138 L5.23631204,6.01437933 C5.00715237,5.81499546 4.98301432,5.46759228 5.18239819,5.23843262 C5.38178206,5.00927295 5.72918523,4.9851349 5.9583449,5.18451877 Z M5.25784006,5.30407197 C5.0947078,5.49156624 5.11445712,5.7758052 5.30195139,5.93893746 L16.4056406,15.5998719 C16.5931348,15.7630042 16.8773738,15.7432549 17.0405061,15.5557606 C17.2036383,15.3682663 17.183889,15.0840273 16.9963947,14.9208951 L5.89270555,5.25996064 C5.70521127,5.09682838 5.42097231,5.1165777 5.25784006,5.30407197 Z M13.228606,3.69819431 L13.28698,3.7093849 C13.4339304,3.74206763 13.5663657,3.80662099 13.677169,3.89959603 L16.7428383,6.47551181 C17.0306843,6.71747253 17.1425963,7.12769194 17.0447324,7.57017086 C16.9478386,8.00826351 16.6574179,8.4241208 16.2677164,8.68337292 L15.1063805,9.45600885 L13.5106185,11.3571906 L13.4778985,11.396173 L13.4395022,11.3627672 L12.6855022,10.7067672 L12.6484543,10.6745345 L12.6800141,10.6369118 L14.2680626,8.7437829 L14.3605794,8.63342827 L14.3712,8.62392223 L14.4910952,8.54415604 L15.6584383,7.76752349 C15.8121411,7.66527145 15.9354964,7.49173768 15.9706882,7.33262248 C15.9758939,7.30908556 15.9787591,7.28803886 15.9794808,7.27086269 L13.0235695,4.7871703 C12.9887845,4.7952089 12.9395356,4.81606776 12.8872938,4.84840777 C12.7608744,4.92666706 12.6495348,5.05630137 12.5899548,5.19490518 L12.0394207,6.4750608 L11.9814197,6.60993043 L11.9738037,6.62229927 L11.8794665,6.73482801 L10.3256195,8.58618939 L10.2928965,8.62517784 L10.2544985,8.59176396 L9.4994985,7.93476396 L9.46243712,7.90251319 L9.49403167,7.86489083 L11.0318124,6.03372218 L11.5794347,4.76033741 C11.728012,4.41469503 11.9899861,4.110169 12.3083056,3.91311495 C12.6078336,3.7276937 12.9356516,3.65084747 13.228606,3.69819431 Z M12.3609409,3.99814157 C12.0600844,4.18438526 11.811795,4.47300373 11.6713031,4.79983673 L11.120769,6.07999235 L11.1131258,6.09239362 L9.60220496,7.89157785 L10.2817456,8.4829132 L11.8028515,6.67056188 L11.8924546,6.5636801 L11.9475555,6.43555396 L12.4980864,5.15540586 C12.5657408,4.99801818 12.6907522,4.85246565 12.8346585,4.76338115 C12.9096134,4.71698071 12.9822044,4.68933681 13.0331098,4.68427848 L13.0540827,4.68219446 L13.070219,4.69575284 L16.0614323,7.20910764 L16.0776576,7.22274093 L16.079144,7.2438814 C16.0812535,7.27388328 16.0777057,7.31182039 16.0683286,7.35421779 C16.0274146,7.5392051 15.8885638,7.73453759 15.7138283,7.85078182 L14.5464864,8.62741357 L14.4325859,8.70319147 L14.3446857,8.80803936 L12.7881878,10.6635565 L13.4667436,11.253918 L15.0344051,9.38621509 L15.045007,9.37673139 L16.2123264,8.6001146 C16.5807634,8.35500884 16.8558518,7.96110604 16.947092,7.54857556 C17.037362,7.14043135 16.9358708,6.76840982 16.6785003,6.55206653 L13.6128645,3.97617886 C13.5145168,3.89365537 13.3967121,3.83623341 13.2667114,3.80729821 L13.2123962,3.79688611 C12.9445335,3.75365584 12.6408165,3.82488603 12.3609409,3.99814157 Z" id="形状结合" fill="#000000" fill-rule="nonzero"></path>
        </g>
    </g>
</svg>