<svg preserveAspectRatio="none" width="100%" height="100%" overflow="visible" style="display: block;" viewBox="0 0 22 22" fill="none" xmlns="http://www.w3.org/2000/svg">
<g id="&#231;&#188;&#150;&#231;&#187;&#132;">
<g id="&#231;&#159;&#169;&#229;&#189;&#162;">
</g>
<path id="&#232;&#183;&#175;&#229;&#190;&#132;" fill-rule="evenodd" clip-rule="evenodd" d="M17.2921 12.7046C17.5384 12.4583 17.5384 12.0479 17.2921 11.8426C17.0459 11.5963 16.6354 11.5963 16.4301 11.8426L11.7508 16.522C10.2731 17.6713 8.13861 17.5892 6.78405 16.2347C5.42949 14.8801 5.34739 12.7457 6.49672 11.268L13.3516 4.28993C14.2546 3.71526 15.5271 3.79736 16.307 4.6183C17.128 5.43925 17.21 6.67067 16.6354 7.57371L10.5193 13.6897L10.3962 13.8129C10.0678 14.1413 9.53421 14.1413 9.20583 13.8129C8.87746 13.4845 8.87746 12.9509 9.20583 12.6225L9.32898 12.4994L14.1315 7.6558L14.1726 7.61475C14.4188 7.36847 14.4188 6.958 14.1726 6.75276C13.9263 6.50648 13.5158 6.50648 13.3106 6.75276V6.79381L8.46698 11.6374L8.34384 11.7605C7.5229 12.5815 7.5229 13.895 8.34384 14.7159C9.16479 15.5369 10.4783 15.5369 11.2992 14.7159L11.4224 14.5928L17.4974 8.4357C18.5646 6.99904 18.4825 4.98773 17.169 3.67422C15.8965 2.40175 13.8442 2.27861 12.4486 3.38689L5.59368 10.406C3.95179 12.3762 4.03388 15.2906 5.88101 17.1377C7.68709 18.9438 10.6014 19.0669 12.5717 17.4661L17.2921 12.7046Z" fill="var(--fill-0, black)" fill-opacity="0.85"/>
</g>
</svg>
