<?xml version="1.0" encoding="UTF-8"?>
<svg width="22px" height="22px" viewBox="0 0 22 22" version="1.1" xmlns="http://www.w3.org/2000/svg" xmlns:xlink="http://www.w3.org/1999/xlink">
    <title>编组</title>
    <g id="页面-1" stroke="none" stroke-width="1" fill="none" fill-rule="evenodd">
        <g id="画框-2" transform="translate(-604, -1875)">
            <g id="编组-6" transform="translate(236, 1318)">
                <g id="编组" transform="translate(170, 208)">
                    <g transform="translate(182, 308)">
                        <g transform="translate(4, 36)">
                            <g transform="translate(12, 5)">
                                <rect id="矩形" x="0" y="0" width="22" height="22"></rect>
                                <g transform="translate(2.75, 3.75)" fill="#000000" fill-opacity="0.85">
                                    <path d="M1.70491803,1.31147541 C1.48762567,1.31147541 1.31147541,1.48762567 1.31147541,1.70491803 L1.31147541,12.1967213 C1.31147541,12.4139016 1.4877377,12.5901639 1.70491803,12.5901639 L14.295082,12.5901639 C14.5123743,12.5901639 14.6885246,12.4140137 14.6885246,12.1967213 L14.6885246,1.70491803 C14.6885246,1.48762567 14.5123743,1.31147541 14.295082,1.31147541 L1.70491803,1.31147541 Z M1.70491803,0 L14.295082,0 C15.2361967,0 16,0.763803279 16,1.70491803 L16,12.1967213 C16,13.1378361 15.2361967,13.9016393 14.295082,13.9016393 L1.70491803,13.9016393 C1.25274566,13.9016393 0.819093084,13.7220146 0.49935893,13.4022804 C0.179624777,13.0825463 0,12.6488937 0,12.1967213 L0,1.70491803 C0,0.763803279 0.763803279,0 1.70491803,0 Z" id="形状" fill-rule="nonzero"></path>
                                    <path d="M14.295082,12.5901639 C14.5123743,12.5901639 14.6885246,12.4140137 14.6885246,12.1967213 L14.6885246,9.29678689 C14.6885246,8.75121311 14.3800656,8.2507541 13.8911475,8.00629508 L11.9721967,7.04734426 C11.4988525,6.81063482 10.9338967,6.85211054 10.5001967,7.15540984 L2.7362623,12.5901639 L14.295082,12.5901639 L14.295082,12.5901639 Z M14.4776393,6.83331148 C15.4107011,7.29987432 16,8.25357779 16,9.29678689 L16,12.1967213 C16,13.1378361 15.2361967,13.9016395 14.295082,13.9016395 L1.98714754,13.9016395 C1.51754768,13.9019197 1.10206818,13.5974632 0.960863795,13.1495955 C0.81965941,12.7017279 0.98538654,12.2140277 1.37022951,11.944918 L9.74793443,6.08104918 C10.575969,5.50167583 11.6548107,5.42234331 12.5586885,5.87436066 L14.4776393,6.83331148 Z" id="形状" fill-rule="nonzero"></path>
                                    <path d="M4.32786885,5.37704918 C4.90731515,5.37704918 5.37704918,4.90731515 5.37704918,4.32786885 C5.37704918,3.74842256 4.90731515,3.27868852 4.32786885,3.27868852 C3.74842257,3.27868852 3.27868856,3.74842257 3.27868856,4.32786885 C3.27868856,4.90731514 3.74842257,5.37704918 4.32786885,5.37704918 L4.32786885,5.37704918 Z" id="路径"></path>
                                </g>
                            </g>
                        </g>
                    </g>
                </g>
            </g>
        </g>
    </g>
</svg>
