<?xml version="1.0" encoding="UTF-8"?>
<svg width="20px" height="20px" viewBox="0 0 20 20" version="1.1" xmlns="http://www.w3.org/2000/svg" xmlns:xlink="http://www.w3.org/1999/xlink">
    <title>编组</title>
    <g id="页面-1" stroke="none" stroke-width="1" fill="none" fill-rule="evenodd">
        <g id="画框-2" transform="translate(-2283, -765)">
            <g id="编组-4" transform="translate(1800, 279)">
                <g id="编组" transform="translate(295, 208)">
                    <g id="编组-2" transform="translate(170, 0)">
                        <g transform="translate(0, 176)">
                            <g id="编组" transform="translate(12, 96)">
                                <g transform="translate(6, 6)">
                                    <rect id="矩形-11" x="0" y="0" width="20" height="20"></rect>
                                    <path d="M10.75,3 L10.75,9.25 L17,9.25 C17.4142136,9.25 17.75,9.58578644 17.75,10 C17.75,10.4142136 17.4142136,10.75 17,10.75 L10.75,10.75 L10.75,17 C10.75,17.4142136 10.4142136,17.75 10,17.75 C9.58578644,17.75 9.25,17.4142136 9.25,17 L9.25,10.75 L3,10.75 C2.58578644,10.75 2.25,10.4142136 2.25,10 C2.25,9.58578644 2.58578644,9.25 3,9.25 L9.25,9.25 L9.25,3 C9.25,2.58578644 9.58578644,2.25 10,2.25 C10.4142136,2.25 10.75,2.58578644 10.75,3 Z" id="形状" fill-opacity="0.7" fill="#000000" fill-rule="nonzero"></path>
                                </g>
                            </g>
                        </g>
                    </g>
                </g>
            </g>
        </g>
    </g>
</svg>