<svg preserveAspectRatio="none" width="100%" height="100%" overflow="visible" style="display: block;" viewBox="0 0 16 13.9016" fill="none" xmlns="http://www.w3.org/2000/svg">
<g id="&#231;&#188;&#150;&#231;&#187;&#132;">
<path id="&#229;&#189;&#162;&#231;&#138;&#182;" fill-rule="evenodd" clip-rule="evenodd" d="M14.2951 0H1.70492C0.763803 0 0 0.763803 0 1.70492V12.1967C0 12.6489 0.179625 13.0825 0.499359 13.4023C0.819093 13.722 1.25275 13.9016 1.70492 13.9016H14.2951C15.2362 13.9016 16 13.1378 16 12.1967V1.70492C16 0.763803 15.2362 0 14.2951 0ZM1.31148 1.70492C1.31148 1.48763 1.48763 1.31148 1.70492 1.31148H14.2951C14.5124 1.31148 14.6885 1.48763 14.6885 1.70492V12.1967C14.6885 12.414 14.5124 12.5902 14.2951 12.5902H1.70492C1.48774 12.5902 1.31148 12.4139 1.31148 12.1967V1.70492Z" fill="var(--fill-0, black)" fill-opacity="0.85"/>
<path id="&#229;&#189;&#162;&#231;&#138;&#182;_2" fill-rule="evenodd" clip-rule="evenodd" d="M16 9.29679C16.0001 8.25358 15.4107 7.29987 14.4776 6.83331L12.5587 5.87436C11.6548 5.42234 10.576 5.50168 9.74793 6.08105L1.37023 11.9449C0.985387 12.214 0.819659 12.7017 0.960864 13.1496C1.10207 13.5975 1.51755 13.9019 1.98715 13.9016H14.2951C15.2362 13.9016 16 13.1378 16 12.1967V9.29679ZM14.6885 12.1967C14.6885 12.414 14.5124 12.5902 14.2951 12.5902H2.73626L10.5002 7.15541C10.9339 6.85211 11.4989 6.81063 11.9722 7.04734L13.8911 8.00629C14.3801 8.25075 14.6885 8.75121 14.6885 9.29679V12.1967Z" fill="var(--fill-0, black)" fill-opacity="0.85"/>
<path id="&#232;&#183;&#175;&#229;&#190;&#132;" fill-rule="evenodd" clip-rule="evenodd" d="M4.32787 5.37705C4.90732 5.37705 5.37705 4.90732 5.37705 4.32787C5.37705 3.74842 4.90732 3.27869 4.32787 3.27869C3.74842 3.27869 3.27869 3.74842 3.27869 4.32787C3.27869 4.90731 3.74842 5.37705 4.32787 5.37705V5.37705Z" fill="var(--fill-0, black)" fill-opacity="0.85"/>
</g>
</svg>
