<?xml version="1.0" standalone="no"?><!DOCTYPE svg PUBLIC "-//W3C//DTD SVG 1.1//EN" "http://www.w3.org/Graphics/SVG/1.1/DTD/svg11.dtd"><svg t="1782377753160" class="icon" viewBox="0 0 1024 1024" version="1.1" xmlns="http://www.w3.org/2000/svg" p-id="17092" xmlns:xlink="http://www.w3.org/1999/xlink" width="200" height="200"><path fill="#0088FF" d="M177.493333 354.645333H125.155556V125.155556h229.489777v52.337777H177.493333v177.152zM409.6 512c0 64.512-51.996444 113.777778-119.694222 113.777778S170.666667 576.170667 170.666667 512c0-64.170667 51.996444-113.777778 119.694222-113.777778S409.6 447.146667 409.6 512zM214.584889 512a76.231111 76.231111 0 0 0 76.458667 75.776A75.434667 75.434667 0 1 0 214.584889 512z m327.452444-75.776a74.638222 74.638222 0 0 0 0 149.276444A91.022222 91.022222 0 0 0 603.022222 559.217778l25.372445 28.216889c-23.438222 23.836444-55.182222 37.546667-88.632889 38.343111a113.777778 113.777778 0 0 1-117.191111-114.574222c0-64.170667 51.768889-113.208889 118.784-113.208889a125.155556 125.155556 0 0 1 86.698666 35.953777l-25.031111 31.516445c-15.36-17.806222-37.489778-28.444444-60.984889-29.240889z m262.144 187.733333L765.383111 557.511111h-58.709333v66.104889h-43.008V399.36h93.752889c58.026667 0 91.022222 27.875556 91.022222 77.368889 0 35.271111-15.815111 60.643556-44.600889 72.817778l49.493333 74.410666h-49.152z m-97.507555-103.879111h50.744889c32.085333 0 50.062222-13.880889 50.062222-42.097778s-17.976889-41.073778-50.062222-41.073777h-50.744889v83.171555zM354.645333 898.844444H125.155556v-229.489777h52.337777v177.152h177.152v52.337777z m544.199111 0h-229.489777v-52.337777h177.152v-177.152h52.337777V898.844444z m0-544.199111h-52.337777V177.493333h-177.152V125.155556H898.844444v229.489777z" p-id="17093"></path></svg>
